<?xml version="1.0"?>
<svg version="1.1" xmlns="http://www.w3.org/2000/svg" xmlns:xlink="http://www.w3.org/1999/xlink" width="200" height="154" style="background-color: slategray ">
	<g id="group_36" transform="scale(0.9, 0.9) translate(10, 5)">
		<path d="M 10 80 C 40 10 65 10 95 80 S 160 160 180 80" fill="transparent" stroke-width="2" stroke="white" stroke-dasharray="5, 5" id="path_34" />
		<g transform=" translate(-20, -30) scale(0.07, 0.07)" id="group_35">
			<g fill="none" id="g4" transform="matrix(1.7656463,0,0,1.7656463,324.90716,255.00942)">
				<g fill="#FFF" id="g6" stroke="#000" stroke-width="0.17200001">
					<path d="M -122.3 84.285 s 0.1 1.894 -0.73 1.875 c -0.82 -0.019 -17.27 -48.094 -37.8 -45.851 0 0 17.78 -7.353 38.53 43.976 z " id="path8" />
				</g>
				<g fill="#FFF" id="g10" stroke="#000" stroke-width="0.17200001">
					<path d="M -118.77 81.262 s -0.55 1.816 -1.32 1.517 c -0.77 -0.298 0.11 -51.104 -19.95 -55.978 0 0 19.22 -0.864 21.27 54.461 z " id="path12" />
				</g>
				<g fill="#FFF" id="g14" stroke="#000" stroke-width="0.17200001">
					<path d="M -91.284 123.59 s 1.636 0.96 1.166 1.64 c -0.471 0.67 -49.642 -12.13 -59.102 6.23 0 0 3.68 -18.89 57.936 -7.87 z " id="path16" />
				</g>
				<g fill="#FFF" id="g18" stroke="#000" stroke-width="0.17200001">
					<path d="M -94.093 133.8 s 1.856 0.4 1.622 1.19 c -0.233 0.79 -50.939 4.13 -54.129 24.53 0 0 -2.46 -19.08 52.507 -25.72 z " id="path20" />
				</g>
				<g fill="#FFF" id="g22" stroke="#000" stroke-width="0.17200001">
					<path d="M -98.304 128.28 s 1.778 0.66 1.432 1.41 -50.998 -3.34 -57.128 16.37 c 0 0 0.35 -19.24 55.696 -17.78 z " id="path24" />
				</g>
				<g fill="#FFF" id="g26" stroke="#000" stroke-width="0.17200001">
					<path d="M -109.01 110.07 s 1.31 1.38 0.67 1.9 -44.38 -25.336 -58.53 -10.29 c 0 0 8.74 -17.147 57.86 8.39 z " id="path28" />
				</g>
				<g fill="#FFF" id="g30" stroke="#000" stroke-width="0.17200001">
					<path d="M -116.55 114.26 s 1.45 1.22 0.88 1.81 c -0.58 0.59 -46.97 -20.148 -59.32 -3.6 0 0 6.74 -18.023 58.44 1.79 z " id="path32" />
				</g>
				<g fill="#FFF" id="g34" stroke="#000" stroke-width="0.17200001">
					<path d="M -119.15 118.34 s 1.6 1 1.11 1.67 c -0.49 0.66 -49.27 -13.56 -59.25 4.51 0 0 4.22 -18.77 58.14 -6.18 z " id="path36" />
				</g>
				<g fill="#FFF" id="g38" stroke="#000" stroke-width="0.17200001">
					<path d="M -108.42 118.95 s 1.12 1.53 0.42 1.97 c -0.7 0.43 -40.77 -30.818 -56.73 -17.71 0 0 10.87 -15.884 56.31 15.74 z " id="path40" />
				</g>
				<g fill="#FFF" id="g42" stroke="#000" stroke-width="0.17200001">
					<path d="M -128.2 90 s 0.6 1.8 -0.2 2 -29.4 -41.8 -48.6 -34.2 c 0 0 15.2 -11.8 48.8 32.2 z " id="path44" />
				</g>
				<g fill="#FFF" id="g46" stroke="#000" stroke-width="0.17200001">
					<path d="M -127.5 96.979 s 0.97 1.629 0.23 1.996 c -0.74 0.368 -37.72 -34.476 -54.83 -22.914 0 0 12.3 -14.8 54.6 20.918 z " id="path48" />
				</g>
				<g fill="#FFF" id="g50" stroke="#000" stroke-width="0.17200001">
					<path d="M -127.62 101.35 s 1.12 1.53 0.42 1.97 c -0.7 0.43 -40.77 -30.818 -56.73 -17.713 0 0 10.87 -15.881 56.31 15.743 z " id="path52" />
				</g>
				<g fill="#FFF" id="g54" stroke="#000">
					<path d="M -129.83 103.06 c 0.5 6.05 1.49 12.62 3.23 15.74 0 0 -3.6 12.4 5.2 25.6 0 0 -0.4 7.2 1.2 10.4 0 0 4 8.4 8.8 9.2 3.88 0.65 12.607 3.72 22.468 5.12 0 0 17.132 14.08 13.932 26.88 0 0 -0.4 16.4 -4 18 0 0 11.6 -11.2 2 5.6 l -4.4 18.8 s 25.6 -21.6 10 -3.2 l -10 26 s 19.6 -18.4 12.4 -10 l -3.2 8.8 s 43.2 -27.2 12.4 2.4 c 0 0 8 -3.6 12.4 -0.8 0 0 6.8 -1.2 6 0.4 0 0 -20.8 10.4 -24.4 28.8 0 0 8.4 -10 5.2 0.8 l 0.4 11.6 s 4 -21.6 3.6 16 c 0 0 19.2 -18 7.6 2.8 v 16.8 s 15.2 -16.4 8.8 -3.6 c 0 0 10 -8.8 6 6.4 0 0 -0.8 10.4 3.6 -0.8 0 0 16 -30.6 10 -4.4 0 0 -0.8 19.2 4 4.4 0 0 0.4 10.4 9.6 17.6 0 0 -1.2 -50.8 11.6 -14.8 l 4 16.4 s 2.8 -9.2 2.4 -14.4 l 8 8 s 15.2 -22.8 12 -9.6 c 0 0 -7.6 16 -6 20.8 0 0 16.8 -34.8 18 -36.4 0 0 -2 42.4 8.8 6.4 0 0 5.6 12 2.8 16.4 0 0 8 -8 7.2 -11.2 0 0 4.6 -8.2 7.4 5.4 0 0 1.8 9.4 3.4 6.2 0 0 4 24 5.2 1.2 0 0 1.6 -13.6 -5.6 -25.2 0 0 0.8 -3.2 -2 -7.2 0 0 13.6 21.6 6.4 -7.2 0 0 11.201 8 12.401 8 0 0 -13.601 -23.2 -4.801 -18.4 0 0 -5.2 -10.4 12.801 1.6 0 0 -16.001 -16 1.6 -6.4 0 0 7.999 6.4 0.4 -3.6 0 0 -14.401 -16 7.599 2 0 0 11.6 16.4 12.4 19.2 0 0 -10 -29.2 -14.4 -32 0 0 8.4 -36.4 49.6 -20.8 0 0 6.8 17.2 11.2 -1.2 0 0 12.8 -6.4 24 21.2 0 0 4 -13.6 3.2 -16.4 0 0 6.8 1.2 6 0 0 0 13.2 4.4 14.4 3.6 0 0 6.8 6.8 7.2 3.2 0 0 9.2 2.8 7.2 -0.8 0 0 8.8 15.6 9.2 19.2 l 2.4 -14 l 2 2.8 s 1.6 -7.6 0.8 -8.8 20 6.8 24.8 27.6 l 2 8.4 s 6 -14.8 4.4 -18.8 c 0 0 5.2 0.8 5.6 5.2 0 0 4 -23.2 -0.8 -29.2 0 0 4.4 -0.8 5.6 2.8 v -7.2 s 7.2 0.8 7.2 -1.6 c 0 0 4.4 -4 6.4 0.8 0 0 -12.4 -35.2 6 -16 0 0 7.2 10.8 3.6 -8 s -7.6 -20.4 -2.8 -20.8 c 0 0 0.8 -3.6 -1.2 -5.2 s 1.2 0 1.2 0 4.8 4 -0.4 -18 c 0 0 6.4 1.6 -5.6 -27.6 0 0 2.8 -2.4 -1.2 -10.8 0 0 8 4.4 10.8 2.8 0 0 -0.4 -1.6 -3.6 -5.6 0 0 -21.6 -54.8 -1.2 -32.8 0 0 11.85 13.55 5.45 -9.25 0 0 -9.11 -24.009 -8.33 -28.305 l -429.55 23.015 z " id="path56" />
				</g>
				<g fill="#cc7226" id="g58" stroke="#000">
					<path d="M 299.72 80.245 c 0.62 0.181 2.83 1.305 4.08 2.955 0 0 6.8 10.8 1.6 -7.6 0 0 -9.2 -28.8 -0.4 -17.6 0 0 6 7.2 2.8 -6.4 -3.86 -16.427 -6.4 -22.8 -6.4 -22.8 s 11.6 4.8 -15.2 -34.8 l 8.8 3.6 s -19.6 -39.6 -41.2 -44.8 l -8 -6 s 38.4 -38 25.6 -74.8 c 0 0 -6.8 -5.2 -16.4 4 0 0 -6.4 4.8 -12.4 3.2 0 0 -30.8 1.2 -32.8 1.2 s -36.8 -37.2 -102.4 -19.6 c 0 0 -5.2 2 -9.599 0.8 0 0 -18.401 -16 -67.201 6.8 0 0 -10 2 -11.6 2 s -4.4 0 -12.4 6.4 -8.4 7.2 -10.4 8.8 c 0 0 -16.4 11.2 -21.2 12 0 0 -11.6 6.4 -16 16.4 l -3.6 1.2 s -1.6 7.2 -2 8.4 c 0 0 -4.8 3.6 -5.6 9.2 0 0 -8.8 6 -8.4 10.4 0 0 -1.6 5.2 -2.4 10 0 0 -7.2 4.8 -6.4 7.6 0 0 -7.6 14 -6.4 20.8 0 0 -6.4 -0.4 -9.2 2 0 0 -0.8 4.8 -2.4 5.2 0 0 -2.8 1.2 -0.4 5.2 0 0 -1.6 2.8 -2 4.4 0 0 0.8 2.8 -3.6 8.4 0 0 -6.4 18.8 -4.4 24 0 0 0.4 4.8 -2.4 6.4 0 0 -3.6 -0.4 4.8 11.6 0 0 0.8 1.2 -2.4 3.6 0 0 -17.2 3.6 -19.6 20 0 0 -13.6 14.8 -13.6 20 0 2.305 0.27 5.452 0.97 10.06 0 0 -0.57 8.34 27.03 9.14 s 402.72 -31.355 402.72 -31.355 z " id="path60" />
				</g>
				<g fill="#cc7226" id="g62">
					<path d="M -115.6 102.6 c -25 -39.4 -10.6 17 -10.6 17 8.8 34.4 138.4 -3.2 138.4 -3.2 s 168.8 -30.4 180 -34.4 106.4 2.4 106.4 2.4 l -5.6 -16.8 c -64.8 -46.4 -84 -23.2 -97.6 -27.2 s -11.2 5.6 -14.4 6.4 -42.4 -24 -48.8 -23.2 -31.74 -22.951 -16.8 8.8 c 16 34 -58.4 39.2 -75.2 28 s 7.2 18.4 7.2 18.4 c 18.4 20 -16 3.2 -16 3.2 -34.4 -12.8 -58.4 12.8 -61.6 13.6 s -8 4 -8.8 -2.4 -8.31 -23.101 -40 3.2 c -20 16.6 -33.8 -5.4 -33.8 -5.4 l -2.8 11.6 z " id="path64" />
				</g>
				<g fill="#e87f3a" id="g66">
					<path d="M 133.51 25.346 c -6.4 0.8 -31.77 -22.939 -16.8 8.8 16.6 35.2 -58.4 39.2 -75.2 28 -16.801 -11.2 7.2 18.4 7.2 18.4 18.4 20.004 -16.001 3.2 -16.001 3.2 -34.4 -12.8 -58.4 12.8 -61.6 13.6 s -8 4.004 -8.8 -2.4 c -0.8 -6.4 -8.179 -22.934 -40 3.2 -21.236 17.344 -34.729 -4.109 -34.729 -4.109 l -3.2 10.113 c -25 -39.804 -9.93 18.51 -9.93 18.51 8.81 34.4 139.06 -4.51 139.06 -4.51 s 168.8 -30.404 180 -34.404 105.53 2.327 105.53 2.327 l -5.53 -17.309 c -64.8 -46.4 -83.2 -22.618 -96.8 -26.618 s -11.2 5.6 -14.4 6.4 -42.4 -24 -48.8 -23.2 z " id="path68" />
				</g>
				<g fill="#ea8c4d" id="g70">
					<path d="M 134.82 27.091 c -6.4 0.8 -31.14 -23.229 -16.8 8.8 16.2 36.201 -58.401 39.201 -75.201 28.001 s 7.2 18.4 7.2 18.4 c 18.4 19.998 -16 3.2 -16 3.2 -34.4 -12.8 -58.401 12.8 -61.601 13.6 s -8 3.998 -8.8 -2.4 c -0.8 -6.4 -8.048 -22.767 -40 3.2 -22.473 18.088 -35.658 -2.818 -35.658 -2.818 l -3.6 8.616 c -23.8 -38.998 -9.25 20.02 -9.25 20.02 8.8 34.4 139.71 -5.82 139.71 -5.82 s 168.8 -30.398 180 -34.398 104.65 2.254 104.65 2.254 l -5.45 -17.818 c -64.8 -46.4 -82.4 -22.037 -96 -26.037 s -11.2 5.6 -14.4 6.401 c -3.2 0.8 -42.4 -24.001 -48.8 -23.201 z " id="path72" />
				</g>
				<g fill="#ec9961" id="g74">
					<path d="M 136.13 28.837 c -6.4 0.8 -31.13 -23.232 -16.8 8.8 16.8 37.556 -58.936 38.845 -75.202 28 -16.8 -11.2 7.2 18.4 7.2 18.4 18.4 20.003 -16 3.2 -16 3.2 -34.4 -12.8 -58.4 12.803 -61.6 13.603 s -8 4 -8.8 -2.403 c -0.8 -6.4 -7.917 -22.598 -40.001 3.203 -23.709 18.83 -36.587 -1.53 -36.587 -1.53 l -4 7.13 c -21.8 -36.803 -8.58 21.52 -8.58 21.52 8.8 34.4 140.37 -7.12 140.37 -7.12 s 168.8 -30.403 180 -34.403 103.78 2.182 103.78 2.182 l -5.38 -18.327 c -64.8 -46.401 -81.6 -21.455 -95.2 -25.455 s -11.2 5.6 -14.4 6.4 -42.4 -24 -48.8 -23.2 z " id="path76" />
				</g>
				<g fill="#eea575" id="g78">
					<path d="M 137.44 30.583 c -6.4 0.8 -30.63 -23.454 -16.8 8.8 16.8 39.2 -58.403 39.2 -75.203 28 s 7.2 18.4 7.2 18.4 c 18.4 19.997 -16 3.2 -16 3.2 -34.4 -12.8 -58.4 12.797 -61.6 13.597 s -8 4 -8.8 -2.4 c -0.8 -6.397 -7.785 -22.428 -40 3.2 -24.946 19.58 -37.507 -0.23 -37.507 -0.23 l -4.4 5.63 c -19.8 -34.798 -7.91 23.04 -7.91 23.04 8.8 34.4 141.02 -8.44 141.02 -8.44 s 168.8 -30.397 180 -34.397 102.91 2.109 102.91 2.109 l -5.31 -18.837 c -64.8 -46.4 -80.8 -20.872 -94.4 -24.872 s -11.2 5.6 -14.4 6.4 -42.4 -24 -48.8 -23.2 z " id="path80" />
				</g>
				<g fill="#f1b288" id="g82">
					<path d="M 138.75 32.328 c -6.4 0.8 -32.37 -22.651 -16.8 8.8 19.2 38.8 -58.404 39.2 -75.204 28 s 7.2 18.4 7.2 18.4 c 18.4 20.002 -16 3.2 -16 3.2 -34.4 -12.8 -58.4 12.802 -61.6 13.602 s -8 4 -8.8 -2.4 c -0.8 -6.402 -7.654 -22.265 -40 3.2 -26.182 20.33 -38.436 1.05 -38.436 1.05 l -4.8 4.15 c -18 -33.202 -7.24 24.54 -7.24 24.54 8.8 34.4 141.68 -9.74 141.68 -9.74 s 168.8 -30.402 180 -34.402 102.03 2.036 102.03 2.036 l -5.23 -19.345 c -64.8 -46.4 -80 -20.291 -93.6 -24.291 s -11.2 5.6 -14.4 6.4 -42.4 -24 -48.8 -23.2 z " id="path84" />
				</g>
				<g fill="#f3bf9c" id="g86">
					<path d="M 140.06 34.073 c -6.4 0.8 -32.75 -22.46 -16.8 8.8 20.4 40.001 -58.405 39.201 -75.205 28.001 s 7.2 18.4 7.2 18.4 c 18.4 19.996 -16 3.2 -16 3.2 -34.4 -12.8 -58.4 12.796 -61.6 13.596 s -8 4 -8.8 -2.4 c -0.8 -6.396 -7.523 -22.092 -40 3.2 -27.419 21.08 -39.365 2.35 -39.365 2.35 l -5.2 2.65 c -16 -30.196 -6.56 26.06 -6.56 26.06 8.8 34.4 142.32 -11.06 142.32 -11.06 s 168.8 -30.396 180 -34.396 101.16 1.963 101.16 1.963 l -5.16 -19.854 c -64.8 -46.4 -79.2 -19.709 -92.8 -23.709 -13.6 -4.001 -11.2 5.6 -14.4 6.4 s -42.4 -24.001 -48.8 -23.201 z " id="path88" />
				</g>
				<g fill="#f5ccb0" id="g90">
					<path d="M 141.36 35.819 c -6.4 0.8 -33.84 -21.875 -16.8 8.8 22 39.6 -58.396 39.2 -75.196 28 s 7.2 18.4 7.2 18.4 c 18.4 20.001 -16 3.2 -16 3.2 -34.4 -12.8 -58.4 12.801 -61.6 13.601 s -8 4 -8.8 -2.4 c -0.8 -6.401 -7.391 -21.928 -40 3.2 -28.655 21.82 -40.294 3.64 -40.294 3.64 l -5.6 1.16 c -14.4 -28.401 -5.89 27.56 -5.89 27.56 8.8 34.4 142.98 -12.36 142.98 -12.36 s 168.8 -30.401 180 -34.401 100.3 1.891 100.3 1.891 l -5.1 -20.364 c -64.8 -46.4 -78.4 -19.127 -92 -23.127 s -11.2 5.6 -14.4 6.4 -42.4 -24 -48.8 -23.2 z " id="path92" />
				</g>
				<g fill="#f8d8c4" id="g94">
					<path d="M 142.67 37.565 c -6.4 0.8 -33.84 -21.876 -16.8 8.8 22 39.6 -58.396 39.2 -75.196 28 s 7.2 18.4 7.2 18.4 c 18.4 19.995 -16 3.2 -16 3.2 -34.401 -12.8 -58.401 12.795 -61.601 13.595 s -8 4 -8.8 -2.4 -7.259 -21.755 -40 3.2 c -29.891 22.57 -41.213 4.93 -41.213 4.93 l -6 -0.33 c -13.61 -26.396 -5.22 29.08 -5.22 29.08 8.8 34.4 143.63 -13.68 143.63 -13.68 s 168.8 -30.395 180 -34.395 99.42 1.818 99.42 1.818 l -5.01 -20.873 c -64.81 -46.4 -77.61 -18.545 -91.21 -22.545 s -11.2 5.6 -14.4 6.4 -42.4 -24 -48.8 -23.2 z " id="path96" />
				</g>
				<g fill="#fae5d7" id="g98">
					<path d="M 143.98 39.31 c -6.4 0.8 -33.45 -22.087 -16.8 8.8 22 40.8 -58.397 39.2 -75.197 28 s 7.2 18.4 7.2 18.4 c 18.4 20 -16 3.2 -16 3.2 -34.4 -12.8 -58.4 12.8 -61.6 13.6 -3.201 0.8 -8.001 4 -8.801 -2.4 s -7.128 -21.592 -40 3.2 c -31.127 23.31 -42.142 6.22 -42.142 6.22 l -6.4 -1.82 c -13 -24 -4.55 30.58 -4.55 30.58 8.8 34.4 144.29 -14.98 144.29 -14.98 s 168.8 -30.4 180 -34.4 98.55 1.746 98.55 1.746 l -4.95 -21.382 c -64.8 -46.401 -76.8 -17.964 -90.4 -21.964 s -11.2 5.6 -14.4 6.4 -42.4 -24 -48.8 -23.2 z " id="path100" />
				</g>
				<g fill="#fcf2eb" id="g102">
					<path d="M 145.29 41.055 c -6.4 0.8 -32.37 -22.644 -16.8 8.8 21.2 42.801 -58.398 39.201 -75.198 28.001 s 7.2 18.4 7.2 18.4 c 18.4 20.004 -16 3.2 -16 3.2 -34.4 -12.8 -58.4 12.804 -61.6 13.604 s -8 4 -8.8 -2.4 -6.997 -21.428 -40 3.2 c -32.365 24.05 -43.072 7.5 -43.072 7.5 l -6.8 -3.3 c -12.8 -23.204 -3.87 32.09 -3.87 32.09 8.8 34.4 144.94 -16.29 144.94 -16.29 s 168.8 -30.4 180 -34.404 c 11.2 -4 97.67 1.674 97.67 1.674 l -4.87 -21.893 c -64.8 -46.4 -76 -17.381 -89.6 -21.381 -13.6 -4.001 -11.2 5.6 -14.4 6.4 s -42.4 -24.001 -48.8 -23.201 z " id="path104" />
				</g>
				<g fill="#FFF" id="g106">
					<path d="M -115.8 119.6 c -12.8 -22 -3.2 33.6 -3.2 33.6 8.8 34.4 145.6 -17.6 145.6 -17.6 s 168.8 -30.4 180 -34.4 96.8 1.6 96.8 1.6 l -4.8 -22.4 c -64.8 -46.4 -75.2 -16.8 -88.8 -20.8 s -11.2 5.6 -14.4 6.4 -42.4 -24 -48.8 -23.2 -31.62 -23.007 -16.8 8.8 c 22.23 47.707 -60.759 37.627 -75.2 28 -16.8 -11.2 7.2 18.4 7.2 18.4 18.4 20 -16 3.2 -16 3.2 -34.4 -12.8 -58.4 12.8 -61.6 13.6 s -8 4 -8.8 -2.4 -6.865 -21.256 -40 3.2 c -33.6 24.8 -44 8.8 -44 8.8 l -7.2 -4.8 z " id="path108" />
				</g>
				<g fill="#000" id="g110">
					<path d="M -74.2 149.6 s -7.2 11.6 13.6 24.8 c 0 0 1.4 1.4 -16.6 -2.8 0 0 -6.2 -2 -7.8 -12.4 0 0 -4.8 -4.4 -9.6 -10 s 20.4 0.4 20.4 0.4 z " id="path112" />
				</g>
				<g fill="#CCC" id="g114">
					<path d="M 65.8 102 s 17.698 26.82 17.1 31.6 c -1.3 10.4 -1.5 20 1.7 24 3.201 4 12.001 37.2 12.001 37.2 s -0.4 1.2 11.999 -36.8 c 0 0 11.6 -16 -8.4 -34.4 0 0 -35.2 -28.8 -34.4 -21.6 z " id="path116" />
				</g>
				<g fill="#000" id="g118">
					<path d="M -54.2 176.4 s 11.2 7.2 -3.2 38.4 l 6.4 -2.4 s -0.8 11.2 -4 13.6 l 7.2 -3.2 s 4.8 8 0.8 12.8 c 0 0 16.8 8 16 14.4 0 0 6.4 -8 2.4 -14.4 s -11.2 -2.4 -10.4 -20.8 l -8.8 3.2 s 5.6 -8.8 5.6 -15.2 l -8 2.4 s 15.469 -26.58 4.8 -28 c -6 -0.8 -8.8 -0.8 -8.8 -0.8 z " id="path120" />
				</g>
				<g fill="#CCC" id="g122">
					<path d="M -21.8 193.2 s 2.8 -4.4 0 -3.6 -34 15.6 -40 25.2 c 0 0 34.4 -24.4 40 -21.6 z " id="path124" />
				</g>
				<g fill="#CCC" id="g126">
					<path d="M -11.4 201.2 s 2.8 -4.4 0 -3.6 -34 15.6 -40 25.2 c 0 0 34.4 -24.4 40 -21.6 z " id="path128" />
				</g>
				<g fill="#CCC" id="g130">
					<path d="M 1.8 186 s 2.8 -4.4 0 -3.6 -34 15.6 -40 25.2 c 0 0 34.4 -24.4 40 -21.6 z " id="path132" />
				</g>
				<g fill="#CCC" id="g134">
					<path d="M -21.4 229.6 s 0 -6 -2.8 -5.2 -38.8 18.4 -44.8 28 c 0 0 42 -25.6 47.6 -22.8 z " id="path136" />
				</g>
				<g fill="#CCC" id="g138">
					<path d="M -20.2 218.8 s 1.2 -4.8 -1.6 -4 c -2 0 -28.4 11.6 -34.4 21.2 0 0 29.6 -21.6 36 -17.2 z " id="path140" />
				</g>
				<g fill="#CCC" id="g142">
					<path d="m -34.6 266.4 l -10 7.6 s 10.4 -7.6 14 -6.4 c 0 0 -6.8 11.2 -7.6 16.4 0 0 10.4 -12.8 16 -12.4 0 0 7.6 0.4 7.6 11.2 0 0 5.6 -10.4 8.8 -10 0 0 1.2 6.4 0 13.2 0 0 4 -7.6 8 -6 0 0 6.4 -2 5.6 9.6 0 0 0 10.4 -0.8 13.2 0 0 5.6 -26.4 8 -26.8 0 0 8 -1.2 12.8 7.6 0 0 -4 -7.6 0.8 -5.6 0 0 10.8 1.6 14 8.4 0 0 -6.8 -12 -1.2 -8.8 l 8 6.4 s 8.4 21.2 10.4 22.8 c 0 0 -7.6 -21.6 -6 -21.6 0 0 -2 -12 3.2 2.8 0 0 -3.2 -14 2.4 -13.2 s 10 10.8 18.4 8.4 c 0 0 9.601 5.6 11.601 -63.6 l -124 46.8 z " id="path144" />
				</g>
				<g fill="#000" id="g146">
					<path d="M -29.8 173.6 s 14.8 -6 54.8 0 c 0 0 7.2 0.4 14 -8.4 s 33.6 -16 40 -14 l 9.601 6.4 l 0.8 1.2 s 12.399 10.4 12.799 18 -14.399 55.6 -24 71.6 c -9.6 16 -19.2 28.4 -38.4 26 0 0 -20.8 -4 -46.4 0 0 0 -29.2 -1.6 -32 -9.6 s 11.2 -23.2 11.2 -23.2 4.4 -8.4 3.2 -22.8 -0.8 -42.4 -5.6 -45.2 z " id="path148" />
				</g>
				<g fill="#e5668c" id="g150">
					<path d="M -7.8 175.6 c 8.4 18.4 -21.2 83.6 -21.2 83.6 -2 1.6 12.66 7.65 22.8 5.2 10.946 -2.64 51.2 1.6 51.2 1.6 23.6 -15.6 36.4 -60 36.4 -60 s 10.401 -24 -7.2 -27.2 c -17.6 -3.2 -82 -3.2 -82 -3.2 z " id="path152" />
				</g>
				<g fill="#b23259" id="g154">
					<path d="M -9.831 206.5 c 3.326 -12.79 4.91 -24.59 2.031 -30.9 0 0 62.4 6.4 73.6 -14.4 4.241 -7.87 19.001 22.8 18.6 32.4 0 0 -63 14.4 -77.8 3.2 l -16.431 9.7 z " id="path156" />
				</g>
				<g fill="#a5264c" id="g158">
					<path d="M -5.4 222.8 s 2 7.2 -0.4 11.2 c 0 0 -1.6 0.8 -2.8 1.2 0 0 1.2 3.6 7.2 5.2 0 0 2 4.4 4.4 4.8 s 7.2 6 11.2 4.8 15.2 -5.2 15.2 -5.2 5.6 -3.2 14.4 0.4 c 0 0 2.375 -0.8 2.8 -4.8 0.5 -4.7 3.6 -8.4 5.6 -10.4 s 11.6 -14.8 10.4 -15.2 -68 8 -68 8 z " id="path160" />
				</g>
				<g fill="#ff727f" id="g162" stroke="#000">
					<path d="M -9.8 174.4 s -2.8 22.4 0.4 30.8 2.4 10.4 1.6 14.4 3.6 14 9.2 20 l 12 1.6 s 15.2 -3.6 24.4 -0.8 c 0 0 8.994 1.34 12.4 -13.6 0 0 4.8 -6.4 12 -9.2 s 14.4 -44.4 10.4 -52.4 -18.4 -12.4 -34.4 3.2 -18 -1.2 -48 6 z " id="path164" />
				</g>
				<g fill="#FFC" id="g166" stroke="#000" stroke-width="0.5">
					<path d="M -8.2 249.2 s -0.8 -2 -5.2 -2.4 c 0 0 -22.4 -3.6 -30.8 -16 0 0 -6.8 -5.6 -2.4 6 0 0 10.4 20.4 17.2 23.2 0 0 16.4 4 21.2 -10.8 z " id="path168" />
				</g>
				<g fill="#cc3f4c" id="g170">
					<path d="M 71.742 185.23 c 0.659 -7.91 2.612 -16.52 0.858 -20.03 -6.446 -12.89 -23.419 -7.5 -34.4 3.2 -16 15.6 -18 -1.2 -48 6 0 0 -1.745 13.96 -0.905 23.98 0 0 37.305 -11.58 38.105 -5.98 0 0 1.6 -3.2 10.8 -3.2 s 31.942 -1.17 33.542 -3.97 z " id="path172" />
				</g>
				<g id="g174" stroke="#a51926" stroke-width="2">
					<path d="M 28.6 175.2 s 4.8 4.8 1.2 14.4 c 0 0 -14.4 16 -12.4 30 " id="path176" />
				</g>
				<g fill="#FFC" id="g178" stroke="#000" stroke-width="0.5">
					<path d="M -19.4 260 s -4.4 -12.8 4.4 -6 l 3.6 3.6 c -1.2 1.6 -6.8 5.6 -8 2.4 z " id="path180" />
				</g>
				<g fill="#FFC" id="g182" stroke="#000" stroke-width="0.5">
					<path d="M -14.36 261.2 s -3.52 -10.24 3.52 -4.8 l 2.88 2.88 c -4.56 1.28 0 3.84 -6.4 1.92 z " id="path184" />
				</g>
				<g fill="#FFC" id="g186" stroke="#000" stroke-width="0.5">
					<path d="M -9.56 261.2 s -3.52 -10.24 3.52 -4.8 l 2.88 2.88 c -3.36 1.28 0 3.84 -6.4 1.92 z " id="path188" />
				</g>
				<g fill="#FFC" id="g190" stroke="#000" stroke-width="0.5">
					<path d="M -2.96 261.4 s -3.52 -10.24 3.52 -4.8 c 0 0 4.383 2.33 2.881 2.88 -2.961 1.08 0 3.84 -6.401 1.92 z " id="path192" />
				</g>
				<g fill="#FFC" id="g194" stroke="#000" stroke-width="0.5">
					<path d="M 3.52 261.32 s -3.52 -10.24 3.521 -4.8 l 2.88 2.88 c -0.96 1.28 0 3.84 -6.401 1.92 z " id="path196" />
				</g>
				<g fill="#FFC" id="g198" stroke="#000" stroke-width="0.5">
					<path d="M 10.2 262 s -4.8 -12.4 4.4 -6 l 3.6 3.6 c -1.2 1.6 0 4.8 -8 2.4 z " id="path200" />
				</g>
				<g id="g202" stroke="#a5264c" stroke-width="2">
					<path d="M -18.2 244.8 s 13.2 -2.8 19.2 0.4 c 0 0 6 1.2 7.2 0.8 s 4.4 -0.8 4.4 -0.8 " id="path204" />
				</g>
				<g id="g206" stroke="#a5264c" stroke-width="2">
					<path d="M 15.8 253.6 s 12 -13.6 24 -9.2 c 7.016 2.57 6 -0.8 6.8 -3.6 s 1 -7 6 -10 " id="path208" />
				</g>
				<g fill="#FFC" id="g210" stroke="#000" stroke-width="0.5">
					<path d="M 33 237.6 s -4 -10.8 -6.8 2 -6 16.4 -7.6 19.2 c 0 0 0 5.2 8.4 4.8 0 0 10.8 -0.4 11.2 -3.2 s -1.2 -14.4 -5.2 -22.8 z " id="path212" />
				</g>
				<g id="g214" stroke="#a5264c" stroke-width="2">
					<path d="M 47 244.8 s 3.6 -2.4 6 -1.2 " id="path216" />
				</g>
				<g id="g218" stroke="#a5264c" stroke-width="2">
					<path d="M 53.5 228.4 s 2.9 -4.9 7.7 -5.7 " id="path220" />
				</g>
				<g fill="#b2b2b2" id="g222">
					<path d="M -25.8 265.2 s 18 3.2 22.4 1.6 l 0.4 2 l -20.8 -1.2 s -11.6 -5.6 -2 -2.4 z " id="path224" />
				</g>
				<g fill="#FFC" id="g226" stroke="#000" stroke-width="0.5">
					<path d="m -11.8 172 l 19.6 0.8 s 7.2 30.8 3.6 38.4 c 0 0 -1.2 2.8 -4 -2.8 0 0 -18.4 -32.8 -21.6 -34.8 s 1.2 -1.6 2.4 -1.6 z " id="path228" />
				</g>
				<g fill="#FFC" id="g230" stroke="#000" stroke-width="0.5">
					<path d="M -88.9 169.3 s 8.9 1.7 21.5 4.3 c 0 0 4.8 22.4 8 27.2 s -0.4 4.8 -4 2 -18.4 -16.8 -20.4 -21.2 -5.1 -12.3 -5.1 -12.3 z " id="path232" />
				</g>
				<g fill="#FFC" id="g234" stroke="#000" stroke-width="0.5">
					<path d="M -67.039 173.82 s 5.8 1.55 6.809 3.76 c 1.008 2.22 -1.202 5.51 -1.202 5.51 s -1 3.31 -2.202 1.15 c -1.202 -2.17 -4.074 -9.83 -3.405 -10.42 z " id="path236" />
				</g>
				<g fill="#000" id="g238">
					<path d="M -67 173.6 s 3.6 5.2 7.2 5.2 3.982 -0.41 6.8 0.2 c 4.6 1 4.2 -1 10.8 0.2 2.64 0.48 5.2 -0.4 8 0.8 s 6 0.4 7.2 -1.6 6 -6.2 6 -6.2 -12.8 1.8 -15.6 2.6 c 0 0 -22.4 1.2 -30.4 -1.2 z " id="path240" />
				</g>
				<g fill="#FFC" id="g242" stroke="#000" stroke-width="0.5">
					<path d="M -22.4 173.8 s -6.45 3.5 -6.85 5.9 5.25 6.1 5.25 6.1 2.75 4.6 3.35 2.2 -0.95 -13.8 -1.75 -14.2 z " id="path244" />
				</g>
				<g fill="#FFC" id="g246" stroke="#000" stroke-width="0.5">
					<path d="M -59.885 179.26 s 7.007 11.19 7.224 -0.02 c 0 0 0.557 -1.26 -1.203 -1.28 -6.075 -0.07 -4.554 -4.18 -6.021 1.3 z " id="path248" />
				</g>
				<g fill="#FFC" id="g250" stroke="#000" stroke-width="0.5">
					<path d="M -52.707 179.51 s 7.921 11.19 7.285 -0.09 c 0 0 0.007 -0.33 -1.746 -0.48 -4.747 -0.42 -4.402 -4.94 -5.539 0.57 z " id="path252" />
				</g>
				<g fill="#FFC" id="g254" stroke="#000" stroke-width="0.5">
					<path d="M -45.494 179.52 s 7.96 10.63 7.291 0.96 c 0 0 0.119 -1.23 -1.535 -1.53 -3.892 -0.71 -4.103 -3.95 -5.756 0.57 z " id="path256" />
				</g>
				<g fill="#FFC" id="g258" stroke="#000" stroke-width="0.5">
					<path d="M -38.618 179.6 s 7.9 11.56 8.248 1.78 c 0 0 1.644 -1.38 -0.102 -1.6 -5.818 -0.74 -5.02 -5.19 -8.146 -0.18 z " id="path260" />
				</g>
				<g fill="#e5e5b2" id="g262">
					<path d="m -74.792 183.13 l -7.658 -1.53 c -2.6 -5 -4.7 -11.15 -4.7 -11.15 s 6.35 1 18.85 3.8 c 0 0 0.876 3.32 2.348 9.11 l -8.84 -0.23 z " id="path264" />
				</g>
				<g fill="#e5e5b2" id="g266">
					<path d="M -9.724 178.47 c -1.666 -2.51 -2.983 -4.26 -3.633 -4.67 -3.013 -1.88 1.13 -1.51 2.259 -1.51 l 18.454 0.76 s 0.524 2.24 1.208 5.63 c 0 0 -10.088 -2.01 -18.288 -0.21 z " id="path268" />
				</g>
				<g fill="#cc7226" id="g270">
					<path d="M 43.88 40.321 c 27.721 3.96 53.241 -31.68 55.001 -41.361 1.759 -9.68 -8.36 -21.56 -8.36 -21.56 1.32 -3.08 -3.52 -17.16 -8.8 -26.4 s -21.181 -8.266 -38.721 -9.24 c -15.84 -0.88 -34.32 22.44 -35.64 24.2 s 4.84 40.041 6.16 45.761 -1.32 32.12 -1.32 32.12 c 34.24 -9.1 3.96 -7.48 31.68 -3.52 z " id="path272" />
				</g>
				<g fill="#ea8e51" id="g274">
					<path d="M 8.088 -33.392 c -1.296 1.728 4.752 39.313 6.048 44.929 s -1.296 31.536 -1.296 31.536 c 32.672 -8.88 3.888 -7.344 31.104 -3.456 27.217 3.888 52.273 -31.104 54.001 -40.609 1.728 -9.504 -8.208 -21.168 -8.208 -21.168 1.296 -3.024 -3.456 -16.848 -8.64 -25.92 s -20.795 -8.115 -38.017 -9.072 c -15.552 -0.864 -33.696 22.032 -34.992 23.76 z " id="path276" />
				</g>
				<g fill="#efaa7c" id="g278">
					<path d="M 8.816 -32.744 c -1.272 1.696 4.664 38.585 5.936 44.097 s -1.272 30.952 -1.272 30.952 c 31.404 -9.16 3.816 -7.208 30.528 -3.392 26.713 3.816 51.305 -30.528 53.001 -39.857 1.696 -9.328 -8.056 -20.776 -8.056 -20.776 1.272 -2.968 -3.392 -16.536 -8.48 -25.44 s -20.41 -7.965 -37.313 -8.904 c -15.264 -0.848 -33.072 21.624 -34.344 23.32 z " id="path280" />
				</g>
				<g fill="#f4c6a8" id="g282">
					<path d="M 9.544 -32.096 c -1.248 1.664 4.576 37.857 5.824 43.265 s -1.248 30.368 -1.248 30.368 c 29.436 -9.04 3.744 -7.072 29.952 -3.328 26.209 3.744 50.337 -29.952 52.001 -39.104 1.664 -9.153 -7.904 -20.385 -7.904 -20.385 1.248 -2.912 -3.328 -16.224 -8.32 -24.96 s -20.025 -7.815 -36.609 -8.736 c -14.976 -0.832 -32.448 21.216 -33.696 22.88 z " id="path284" />
				</g>
				<g fill="#f9e2d3" id="g286">
					<path d="M 10.272 -31.448 c -1.224 1.632 4.488 37.129 5.712 42.433 s -1.224 29.784 -1.224 29.784 c 27.868 -8.92 3.672 -6.936 29.376 -3.264 25.705 3.672 49.369 -29.376 51.001 -38.353 1.632 -8.976 -7.752 -19.992 -7.752 -19.992 1.224 -2.856 -3.264 -15.912 -8.16 -24.48 s -19.64 -7.665 -35.905 -8.568 c -14.688 -0.816 -31.824 20.808 -33.048 22.44 z " id="path288" />
				</g>
				<g fill="#FFF" id="g290">
					<path d="M 44.2 36.8 c 25.2 3.6 48.401 -28.8 50.001 -37.6 s -7.6 -19.6 -7.6 -19.6 c 1.2 -2.8 -3.201 -15.6 -8.001 -24 s -19.254 -7.514 -35.2 -8.4 c -14.4 -0.8 -31.2 20.4 -32.4 22 s 4.4 36.4 5.6 41.6 -1.2 29.2 -1.2 29.2 c 25.5 -8.6 3.6 -6.8 28.8 -3.2 z " id="path292" />
				</g>
				<g fill="#CCC" id="g294">
					<path d="M 90.601 2.8 s -27.801 7.6 -39.401 6 c 0 0 -15.8 -6.6 -24.6 15.2 0 0 -3.6 7.2 -5.6 9.2 s 69.601 -30.4 69.601 -30.4 z " id="path296" />
				</g>
				<g fill="#000" id="g298">
					<path d="M 94.401 0.6 s -29.001 12.2 -39.001 11.8 c 0 0 -16.4 -4.6 -24.8 10 0 0 -8.4 9.2 -11.6 10.8 0 0 -0.4 1.6 6 -2.4 l 10.4 5.2 s 14.8 9.6 24.4 -6.4 c 0 0 4 -11.2 4 -13.2 s 21.2 -7.6 22.801 -8 c 1.6 -0.4 8.2 -4.6 7.8 -7.8 z " id="path300" />
				</g>
				<g fill="#99cc32" id="g302">
					<path d="M 47 36.514 c -6.872 0 -15.245 -3.865 -15.245 -10.114 0 -6.248 8.373 -12.513 15.245 -12.513 6.874 0 12.446 5.065 12.446 11.313 0 6.249 -5.572 11.314 -12.446 11.314 z " id="path304" />
				</g>
				<g fill="#659900" id="g306">
					<path d="M 43.377 19.83 c -4.846 0.722 -9.935 2.225 -9.863 2.009 1.54 -4.619 7.901 -7.952 13.486 -7.952 4.296 0 8.084 1.978 10.32 4.988 0 0 -5.316 -0.33 -13.943 0.955 z " id="path308" />
				</g>
				<g fill="#FFF" id="g310">
					<path d="M 55.4 19.6 s -4.4 -3.2 -4.4 -1 c 0 0 3.6 4.4 4.4 1 z " id="path312" />
				</g>
				<g fill="#000" id="g314">
					<path d="M 45.4 27.726 c -2.499 0 -4.525 -2.026 -4.525 -4.526 0 -2.499 2.026 -4.525 4.525 -4.525 2.5 0 4.526 2.026 4.526 4.525 0 2.5 -2.026 4.526 -4.526 4.526 z " id="path316" />
				</g>
				<g fill="#cc7226" id="g318">
					<path d="M -58.6 14.4 s -3.2 -21.2 -0.8 -25.6 c 0 0 10.8 -10 10.4 -13.6 0 0 -0.4 -18 -1.6 -18.8 s -8.8 -6.8 -14.8 -0.4 c 0 0 -10.4 18 -9.6 24.4 v 2 s -7.6 -0.4 -9.2 1.6 c 0 0 -1.2 5.2 -2.4 5.6 0 0 -2.8 2.4 -0.8 5.2 0 0 -2 2.4 -1.6 6.4 l 7.6 4 s 2 14.4 12.8 19.6 c 4.836 2.329 8 -4.4 10 -10.4 z " id="path320" />
				</g>
				<g fill="#FFF" id="g322">
					<path d="M -59.6 12.56 s -2.88 -19.08 -0.72 -23.04 c 0 0 9.72 -9 9.36 -12.24 0 0 -0.36 -16.2 -1.44 -16.92 s -7.92 -6.12 -13.32 -0.36 c 0 0 -9.36 16.2 -8.64 21.96 v 1.8 s -6.84 -0.36 -8.28 1.44 c 0 0 -1.08 4.68 -2.16 5.04 0 0 -2.52 2.16 -0.72 4.68 0 0 -1.8 2.16 -1.44 5.76 l 6.84 3.6 s 1.8 12.96 11.52 17.64 c 4.352 2.095 7.2 -3.96 9 -9.36 z " id="path324" />
				</g>
				<g fill="#eb955c" id="g326">
					<path d="M -51.05 -42.61 c -1.09 -0.86 -8.58 -6.63 -14.43 -0.39 0 0 -10.14 17.55 -9.36 23.79 v 1.95 s -7.41 -0.39 -8.97 1.56 c 0 0 -1.17 5.07 -2.34 5.46 0 0 -2.73 2.34 -0.78 5.07 0 0 -1.95 2.34 -1.56 6.24 l 7.41 3.9 s 1.95 14.04 12.48 19.11 c 4.714 2.27 7.8 -4.29 9.75 -10.14 0 0 -3.12 -20.67 -0.78 -24.96 0 0 10.53 -9.75 10.14 -13.26 0 0 -0.39 -17.55 -1.56 -18.33 z " id="path328" />
				</g>
				<g fill="#f2b892" id="g330">
					<path d="M -51.5 -41.62 c -0.98 -0.92 -8.36 -6.46 -14.06 -0.38 0 0 -9.88 17.1 -9.12 23.18 v 1.9 s -7.22 -0.38 -8.74 1.52 c 0 0 -1.14 4.94 -2.28 5.32 0 0 -2.66 2.28 -0.76 4.94 0 0 -1.9 2.28 -1.52 6.08 l 7.22 3.8 s 1.9 13.68 12.16 18.62 c 4.594 2.212 7.6 -4.18 9.5 -9.88 0 0 -3.04 -20.14 -0.76 -24.32 0 0 10.26 -9.5 9.88 -12.92 0 0 -0.38 -17.1 -1.52 -17.86 z " id="path332" />
				</g>
				<g fill="#f8dcc8" id="g334">
					<path d="M -51.95 -40.63 c -0.87 -0.98 -8.14 -6.29 -13.69 -0.37 0 0 -9.62 16.65 -8.88 22.57 v 1.85 s -7.03 -0.37 -8.51 1.48 c 0 0 -1.11 4.81 -2.22 5.18 0 0 -2.59 2.22 -0.74 4.81 0 0 -1.85 2.22 -1.48 5.92 l 7.03 3.7 s 1.85 13.32 11.84 18.13 c 4.473 2.154 7.4 -4.07 9.25 -9.62 0 0 -2.96 -19.61 -0.74 -23.68 0 0 9.99 -9.25 9.62 -12.58 0 0 -0.37 -16.65 -1.48 -17.39 z " id="path336" />
				</g>
				<g fill="#FFF" id="g338">
					<path d="M -59.6 12.46 s -2.88 -18.98 -0.72 -22.94 c 0 0 9.72 -9 9.36 -12.24 0 0 -0.36 -16.2 -1.44 -16.92 -0.76 -1.04 -7.92 -6.12 -13.32 -0.36 0 0 -9.36 16.2 -8.64 21.96 v 1.8 s -6.84 -0.36 -8.28 1.44 c 0 0 -1.08 4.68 -2.16 5.04 0 0 -2.52 2.16 -0.72 4.68 0 0 -1.8 2.16 -1.44 5.76 l 6.84 3.6 s 1.8 12.96 11.52 17.64 c 4.352 2.095 7.2 -4.06 9 -9.46 z " id="path340" />
				</g>
				<g fill="#CCC" id="g342">
					<path d="M -62.7 6.2 s -21.6 -10.2 -22.5 -11 c 0 0 9.1 8.2 9.9 8.2 s 12.6 2.8 12.6 2.8 z " id="path344" />
				</g>
				<g fill="#000" id="g346">
					<path d="M -79.8 0 s 18.4 3.6 18.4 8 c 0 2.912 -0.243 16.331 -5.6 14.8 -8.4 -2.4 -4.8 -16.8 -12.8 -22.8 z " id="path348" />
				</g>
				<g fill="#99cc32" id="g350">
					<path d="M -71.4 3.8 s 8.978 1.474 10 4.2 c 0.6 1.6 1.263 9.908 -4.2 11 -4.552 0.911 -6.782 -9.31 -5.8 -15.2 z " id="path352" />
				</g>
				<g fill="#000" id="g354">
					<path d="M 14.595 46.349 c -0.497 -1.742 0.814 -1.611 2.605 -2.149 2 -0.6 14.2 -4.4 15 -7 s 14 1.8 14 1.8 c 1.8 0.8 6.2 3.4 6.2 3.4 4.8 1.2 11.4 1.6 11.4 1.6 2.4 1 5.8 3.8 5.8 3.8 14.6 10.2 27.001 3 27.001 3 19.999 -6.6 13.999 -23.8 13.999 -23.8 -3 -9 0.2 -12.4 0.2 -12.4 0.2 -3.8 7.4 2.6 7.4 2.6 2.6 4.2 3.4 9.2 3.4 9.2 8 11.2 4.6 -6.6 4.6 -6.6 0.2 -1 -2.6 -4.6 -2.6 -5.8 s -1.8 -4.6 -1.8 -4.6 c -3 -3.4 -0.6 -10.4 -0.6 -10.4 1.8 -13.8 -0.4 -12 -0.4 -12 -1.2 -1.8 -10.4 8.2 -10.4 8.2 -2.2 3.4 -8.2 5 -8.2 5 -2.799 1.8 -6.199 0.4 -6.199 0.4 -2.6 -0.4 -8.2 6.6 -8.2 6.6 2.8 -0.2 5.2 4.2 7.6 4.4 s 4.2 -2.4 5.799 -3 c 1.6 -0.6 4.4 5.2 4.4 5.2 0.4 2.6 -5.2 7.4 -5.2 7.4 -0.4 4.6 -1.999 3 -1.999 3 -3 -0.6 -4.2 3.2 -5.2 7.8 s -5.2 5 -5.2 5 c -1.6 7.4 -2.801 4.4 -2.801 4.4 -0.2 -5.6 -6.2 0.2 -6.2 0.2 -1.2 2 -5.8 -0.2 -5.8 -0.2 -6.8 -2 -4.4 -4 -4.4 -4 1.8 -2.2 13 0 13 0 2.2 -1.6 -5.8 -5.6 -5.8 -5.6 -0.6 -1.8 0.4 -6.2 0.4 -6.2 1.2 -3.2 8 -8.8 8 -8.8 9.401 -1.2 6.601 -2.8 6.601 -2.8 -6.2 -5.2 -12.001 2.4 -12.001 2.4 -2.2 6.2 -19.6 21.2 -19.6 21.2 -4.8 3.4 -2.2 -3.4 -6.2 0 s -24.6 -5.6 -24.6 -5.6 c -11.562 -1.193 -14.294 14.549 -17.823 11.429 0 0 5.418 8.52 3.818 2.92 z " id="path356" />
				</g>
				<g fill="#000" id="g358">
					<path d="M 209.4 -120 s -25.6 8 -28.4 26.8 c 0 0 -2.4 22.8 18 40.4 0 0 0.4 6.4 2.4 9.6 0 0 -1.6 4.8 17.2 -2.8 l 27.2 -8.4 s 6.4 -2.4 11.6 -11.2 20.4 -27.6 16.8 -52.8 c 0 0 1.2 -11.2 -4.8 -11.6 0 0 -8.4 -1.6 -15.6 6 0 0 -6.8 3.2 -9.2 2.8 l -35.2 1.2 z " id="path360" />
				</g>
				<g fill="#000" id="g362">
					<path d="M 264.02 -120.99 s 2.1 -8.93 -2.74 -4.09 c 0 0 -7.04 5.72 -14.52 5.72 0 0 -14.52 2.2 -18.92 15.4 0 0 -3.96 26.84 3.96 32.56 0 0 4.84 7.48 11.88 0.88 s 22.54 -36.83 20.34 -50.47 z " id="path364" />
				</g>
				<g fill="#323232" id="g366">
					<path d="M 263.65 -120.63 s 2.09 -8.75 -2.66 -3.99 c 0 0 -6.92 5.61 -14.26 5.61 0 0 -14.26 2.16 -18.58 15.12 0 0 -3.89 26.354 3.89 31.97 0 0 4.75 7.344 11.66 0.864 6.92 -6.48 22.11 -36.184 19.95 -49.574 z " id="path368" />
				</g>
				<g fill="#666" id="g370">
					<path d="M 263.27 -120.27 s 2.08 -8.56 -2.58 -3.9 c 0 0 -6.78 5.51 -13.99 5.51 0 0 -14 2.12 -18.24 14.84 0 0 -3.81 25.868 3.82 31.38 0 0 4.66 7.208 11.45 0.848 6.78 -6.36 21.66 -35.538 19.54 -48.678 z " id="path372" />
				</g>
				<g fill="#999" id="g374">
					<path d="M 262.9 -119.92 s 2.07 -8.37 -2.51 -3.79 c 0 0 -6.65 5.41 -13.73 5.41 0 0 -13.72 2.08 -17.88 14.56 0 0 -3.75 25.372 3.74 30.78 0 0 4.58 7.072 11.23 0.832 6.66 -6.24 21.23 -34.892 19.15 -47.792 z " id="path376" />
				</g>
				<g fill="#CCC" id="g378">
					<path d="M 262.53 -119.56 s 2.06 -8.18 -2.43 -3.7 c 0 0 -6.53 5.31 -13.47 5.31 0 0 -13.46 2.04 -17.54 14.28 0 0 -3.67 24.886 3.67 30.19 0 0 4.49 6.936 11.02 0.816 6.52 -6.12 20.79 -34.246 18.75 -46.896 z " id="path380" />
				</g>
				<g fill="#FFF" id="g382">
					<path d="M 262.15 -119.2 s 2.05 -8 -2.35 -3.6 c 0 0 -6.4 5.2 -13.2 5.2 0 0 -13.2 2 -17.2 14 0 0 -3.6 24.4 3.6 29.6 0 0 4.4 6.8 10.8 0.8 s 20.35 -33.6 18.35 -46 z " id="path384" />
				</g>
				<g fill="#992600" id="g386">
					<path d="M 50.6 84 s -20.4 -19.2 -28.4 -20 c 0 0 -34.4 -4 -49.2 14 0 0 17.6 -20.4 45.2 -14.8 0 0 -21.6 -4.4 -34 -1.2 l -26.4 14 l -2.8 4.8 s 4 -14.8 22.4 -20.8 c 0 0 22.8 -4.8 33.6 0 0 0 -21.6 -6.8 -31.6 -4.8 0 0 -30.4 -2.4 -43.2 24 0 0 4 -14.4 18.8 -21.6 0 0 13.6 -8.8 34 -6 0 0 14.4 3.2 19.6 5.6 s 4 -0.4 -4.4 -5.2 c 0 0 -5.6 -10 -19.6 -9.6 0 0 -42.8 3.6 -53.2 15.6 0 0 13.6 -11.2 24 -14 0 0 22.4 -8 30.8 -7.2 0 0 24.8 1 32.4 -3 0 0 -11.2 5 -8 8.2 s 10 10.8 10 12 24.2 23.3 27.8 27.7 l 2.2 2.3 z " id="path388" />
				</g>
				<g fill="#CCC" id="g390">
					<path d="M 189 278 s -15.5 -36.5 -28 -46 c 0 0 26 16 29.5 34 0 0 0 10 -1.5 12 z " id="path392" />
				</g>
				<g fill="#CCC" id="g394">
					<path d="M 236 285.5 s -26.5 -55 -45 -79 c 0 0 43.5 37.5 48.5 64 l 0.5 5.5 l -3 -2.5 s -0.5 9 -1 12 z " id="path396" />
				</g>
				<g fill="#CCC" id="g398">
					<path d="M 292.5 237 s -62.5 -59.5 -64 -62 c 0 0 60.5 66 63.5 73.5 0 0 -2 -9 0.5 -11.5 z " id="path400" />
				</g>
				<g fill="#CCC" id="g402">
					<path d="M 104 280.5 s 19.5 -52 38.5 -29.5 c 0 0 15 10 14.5 13 0 0 -4 -6.5 -22 -6 0 0 -19 -3 -31 22.5 z " id="path404" />
				</g>
				<g fill="#CCC" id="g406">
					<path d="M 294.5 153 s -45 -28.5 -52.5 -30 c -11.81 -2.36 49.5 29 54.5 39.5 0 0 2 -2.5 -2 -9.5 z " id="path408" />
				</g>
				<g fill="#000" id="g410">
					<path d="M 143.8 259.6 s 20.4 -2 27.2 -8.8 l 4.4 3.6 l 17.6 -38.4 l 3.6 5.2 s 14.4 -14.8 13.6 -22.8 12.8 6 12.8 6 -0.8 -11.6 6.4 -4.8 c 0 0 -2.4 -15.6 6 -7.6 0 0 -10.54 -30.16 12 -4.4 5.6 6.4 1.2 -0.4 1.2 -0.4 s -26 -48 -4.4 -33.6 c 0 0 2 -22.8 0.8 -27.2 s -3.2 -26.8 -8 -32 0.4 -6.8 6 -1.6 c 0 0 -11.2 -24 2 -12 0 0 -3.6 -15.2 -8 -18 0 0 -5.6 -17.2 9.6 -6.4 0 0 -4.4 -12.4 -7.6 -15.6 0 0 -11.6 -27.6 -4.4 -22.8 l 4.4 3.6 s -6.8 -14 -0.4 -9.6 6.4 4 6.4 4 -21.2 -33.2 -0.8 -15.6 c 0 0 -8.16 -13.918 -11.6 -20.8 0 0 -18.8 -20.4 -4.4 -14 l 4.8 1.6 s -8.8 -10 -16.8 -11.6 2.4 -8 8.8 -6 22 9.6 22 9.6 12.8 18.8 16.8 19.2 c 0 0 -20 -7.6 -14 0.4 0 0 14.4 14 7.2 13.6 0 0 -6 7.2 -1.2 16 0 0 -18.46 -18.391 -3.6 7.2 l 6.8 16.4 s -24.4 -24.8 -13.2 -2.8 c 0 0 17.2 23.6 19.2 24 s 6.4 9.2 6.4 9.2 l -4.4 -2 l 5.2 8.8 s -11.2 -12 -5.2 1.2 l 5.6 14.4 s -20.4 -22 -6.8 7.6 c 0 0 -16.4 -5.2 -7.6 12 0 0 -1.6 16 -1.2 21.2 s 1.6 33.6 -2.8 41.6 6 27.2 8 31.2 5.6 14.8 -3.2 5.6 -4.4 -3.6 -2.4 5.2 8 24.4 7.2 30 c 0 0 -1.2 1.2 -4.4 -2.4 0 0 -14.8 -22.8 -13.2 -8.4 0 0 -1.2 8 -4.4 16.8 0 0 -3.2 10.8 -3.2 2 0 0 -3.2 -16.8 -6 -9.2 s -6.4 13.6 -9.2 16 -8 -20.4 -9.2 -10 c 0 0 -12 -12.4 -16.8 4 l -11.6 16.4 s -0.4 -12.4 -1.6 -6.4 c 0 0 -30 6 -40.4 1.6 z " id="path412" />
				</g>
				<g fill="#000" id="g414">
					<path d="M 109.4 -97.2 s -11.599 -8 -15.599 -7.6 27.599 -8.8 68.799 18.8 c 0 0 4.8 2.8 8.4 2.4 0 0 3.2 2.4 0.4 6 0 0 -8.8 9.6 2.4 20.8 0 0 18.4 6.8 12.8 -2 0 0 10.8 4 13.2 8 s 1.2 0 1.2 0 l -12.4 -12.4 s -5.2 -2 -8 -10.4 -5.2 -18.4 -0.8 -21.6 c 0 0 -4 4.4 -3.2 0.4 s 4.4 -7.6 6 -8 18 -16.2 24.8 -16.6 c 0 0 -9.2 1.4 -12.2 0.4 s -29.6 -12.4 -35.6 -13.6 c 0 0 -16.8 -6.6 -4.8 -4.6 0 0 35.8 3.8 54 17 0 0 -7.2 -8.4 -25.6 -15.4 0 0 -22.2 -12.6 -57.4 -7.6 0 0 -17.8 3.2 -25.6 5 0 0 -2.599 -0.6 -3.199 -1 s -12.401 -9.4 -40.001 -2.4 c 0 0 -17 4.6 -25.6 9.4 0 0 -15.2 1.2 -18.8 4.4 0 0 -18.6 14.6 -20.6 15.4 s -13.4 8.4 -14.2 8.8 c 0 0 24.6 -6.6 27 -9 s 19.8 -5 22.2 -3.6 10.8 0.8 1.2 1.4 c 0 0 75.6 14.8 76.4 16.8 s 4.8 0.8 4.8 0.8 z " id="path416" />
				</g>
				<g fill="#cc7226" id="g418">
					<path d="M 180.8 -106.4 s -10.2 -7.4 -12.2 -7.4 -14.4 -10.2 -18.6 -9.8 -16.4 -9.6 -43.8 -1.4 c 0 0 -0.6 -2 3 -2.8 0 0 6.4 -2.2 6.8 -2.8 0 0 20.2 -4.2 27.4 -0.6 0 0 9.2 2.6 15.4 8.8 0 0 11.2 3.2 14.4 2.2 0 0 8.8 2.2 9.2 4 0 0 5.8 3 4 5.6 0 0 0.4 1.6 -5.6 4.2 z " id="path420" />
				</g>
				<g fill="#cc7226" id="g422">
					<path d="M 168.33 -108.51 c 0.81 0.63 1.83 0.73 2.43 1.54 0.24 0.31 -0.05 0.64 -0.37 0.74 -1.04 0.31 -2.1 -0.26 -3.24 0.33 -0.4 0.21 -1.04 0.03 -1.6 -0.12 -1.63 -0.44 -3.46 -0.47 -5.15 0.22 -1.98 -1.13 -4.34 -0.54 -6.42 -1.55 -0.06 -0.02 -0.28 0.32 -0.36 0.3 -3.04 -1.15 -6.79 -0.87 -9.22 -3.15 -2.43 -0.41 -4.78 -0.87 -7.21 -1.55 -1.82 -0.51 -3.23 -1.5 -4.85 -2.33 -1.38 -0.71 -2.83 -1.23 -4.37 -1.61 -1.86 -0.45 -3.69 -0.34 -5.58 -0.86 -0.1 -0.02 -0.29 0.32 -0.37 0.3 -0.32 -0.11 -0.62 -0.69 -0.79 -0.64 -1.68 0.52 -3.17 -0.45 -4.83 -0.11 -1.18 -1.22 -2.9 -0.98 -4.45 -1.42 -2.97 -0.85 -6.12 0.42 -9.15 -0.58 4.11 -1.84 8.8 -0.61 12.86 -2.68 2.33 -1.18 4.99 -0.08 7.56 -0.84 0.49 -0.15 1.18 -0.35 1.58 0.32 0.14 -0.14 0.32 -0.37 0.38 -0.35 2.44 1.16 4.76 2.43 7.24 3.5 0.34 0.15 0.88 -0.09 1.13 0.12 1.52 1.21 3.46 1.11 4.85 2.33 1.7 -0.5 3.49 -0.12 5.22 -0.75 0.08 -0.02 0.31 0.32 0.34 0.3 1.14 -0.75 2.29 -0.48 3.18 -0.18 0.34 0.12 1 0.37 1.31 0.44 1.12 0.27 1.98 0.75 3.16 0.94 0.11 0.02 0.3 -0.32 0.37 -0.3 1.12 0.44 2.16 0.39 2.82 1.55 0.14 -0.14 0.3 -0.37 0.38 -0.35 1.03 0.34 1.68 1.1 2.78 1.34 0.48 0.1 1.1 0.73 1.67 0.91 2.39 0.73 4.24 2.26 6.43 3.15 0.76 0.31 1.64 0.55 2.27 1.04 z " id="path424" />
				</g>
				<g fill="#cc7226" id="g426">
					<path d="M 91.696 -122.74 c -2.518 -1.72 -4.886 -2.83 -7.328 -4.62 -0.181 -0.13 -0.541 0.04 -0.743 -0.08 -1.007 -0.61 -1.895 -1.19 -2.877 -1.89 -0.539 -0.38 -1.36 -0.37 -1.868 -0.63 -2.544 -1.29 -5.173 -1.85 -7.68 -3.04 0.682 -0.64 1.804 -0.39 2.4 -1.2 0.195 0.28 0.433 0.56 0.786 0.37 1.678 -0.9 3.528 -1.05 5.204 -0.96 1.704 0.09 3.424 0.39 5.199 0.67 0.307 0.04 0.506 0.56 0.829 0.66 2.228 0.66 4.617 0.14 6.736 0.98 1.591 0.63 3.161 1.45 4.4 2.72 0.252 0.26 -0.073 0.57 -0.353 0.76 0.388 -0.11 0.661 0.1 0.772 0.41 0.084 0.24 0.084 0.54 0 0.78 -0.112 0.31 -0.391 0.41 -0.765 0.46 -1.407 0.19 0.365 -1.19 -0.335 -0.74 -1.273 0.82 -0.527 2.22 -1.272 3.49 -0.28 -0.19 -0.51 -0.41 -0.4 -0.8 0.234 0.52 -0.368 0.81 -0.536 1.13 -0.385 0.72 -1.284 2.14 -2.169 1.53 z " id="path428" />
				</g>
				<g fill="#cc7226" id="g430">
					<path d="M 59.198 -115.39 c -3.154 -0.79 -6.204 -0.68 -9.22 -1.96 -0.067 -0.02 -0.29 0.32 -0.354 0.3 -1.366 -0.6 -2.284 -1.56 -3.36 -2.61 -0.913 -0.89 -2.571 -0.5 -3.845 -0.99 -0.324 -0.12 -0.527 -0.63 -0.828 -0.67 -1.219 -0.16 -2.146 -1.11 -3.191 -1.68 2.336 -0.8 4.747 -0.76 7.209 -1.15 0.113 -0.02 0.258 0.31 0.391 0.31 0.136 0 0.266 -0.23 0.4 -0.36 0.195 0.28 0.497 0.61 0.754 0.35 0.548 -0.54 1.104 -0.35 1.644 -0.31 0.144 0.01 0.269 0.32 0.402 0.32 0.136 0 0.267 -0.32 0.4 -0.32 0.136 0 0.267 0.32 0.4 0.32 0.136 0 0.266 -0.23 0.4 -0.36 0.692 0.78 1.577 0.23 2.399 0.41 1.038 0.22 1.305 1.37 2.379 1.67 4.715 1.3 8.852 3.45 13.215 5.54 0.307 0.14 0.517 0.39 0.407 0.78 0.267 0 0.58 -0.09 0.77 0.04 1.058 0.74 2.099 1.28 2.796 2.38 0.216 0.34 -0.113 0.75 -0.346 0.7 -4.429 -1 -8.435 -1.61 -12.822 -2.71 z " id="path432" />
				</g>
				<g fill="#cc7226" id="g434">
					<path d="M 45.338 -71.179 c -1.592 -1.219 -2.176 -3.25 -3.304 -5.042 -0.214 -0.34 0.06 -0.654 0.377 -0.743 0.56 -0.159 1.103 0.319 1.512 0.521 1.745 0.862 3.28 2.104 5.277 2.243 1.99 2.234 6.25 2.619 6.257 6 0.001 0.859 -1.427 -0.059 -1.857 0.8 -2.451 -1.003 -4.84 -0.9 -7.22 -2.367 -0.617 -0.381 -0.287 -0.834 -1.042 -1.412 z " id="path436" />
				</g>
				<g fill="#cc7226" id="g438">
					<path d="M 17.8 -123.76 c 0.135 0 7.166 0.24 7.149 0.35 -0.045 0.31 -7.775 1.36 -8.139 1.19 -0.164 -0.08 -7.676 2.35 -7.81 2.22 0.268 -0.14 8.534 -3.76 8.8 -3.76 z " id="path440" />
				</g>
				<g fill="#000" id="g442">
					<path d="M 33.2 -114 s -14.8 1.8 -19.2 3 -23 8.8 -26 10.8 c 0 0 -13.4 5.4 -30.4 25.4 0 0 7.6 -3.4 9.8 -6.2 0 0 13.6 -12.6 13.4 -10 0 0 12.2 -8.6 11.6 -6.4 0 0 24.4 -11.2 22.4 -8 0 0 21.6 -4.6 20.6 -2.6 0 0 18.8 4.4 16 4.6 0 0 -5.8 1.2 0.6 4.8 0 0 -3.4 4.4 -8.8 0.4 s -2.4 -1.8 -7.4 -0.8 c 0 0 -2.6 0.8 -7.2 -3.2 0 0 -5.6 -4.6 -14.4 -1 0 0 -30.6 12.6 -32.6 13.2 0 0 -3.6 2.8 -6 6.4 0 0 -5.8 4.4 -8.8 5.8 0 0 -12.8 11.6 -14 13 0 0 -3.4 5.2 -4.2 5.6 0 0 6.4 -3.8 8.4 -5.8 0 0 14 -10 19.4 -10.8 0 0 4.4 -3 5.2 -4.4 0 0 14.4 -9.2 18.6 -9.2 0 0 9.2 5.2 11.6 -1.8 0 0 5.8 -1.8 11.4 -0.6 0 0 3.2 -2.6 2.4 -4.8 0 0 1.6 -1.8 2.6 2 0 0 3.4 3.6 8.2 1.6 0 0 4 -0.2 2 2.2 0 0 -4.4 3.8 -16.2 4 0 0 -12.4 0.6 -28.8 8.2 0 0 -29.8 10.4 -39 20.8 0 0 -6.4 8.8 -11.8 10 0 0 -5.8 0.8 -11.8 8.2 0 0 9.8 -5.8 18.8 -5.8 0 0 4 -2.4 0.2 1.2 0 0 -3.6 7.6 -2 13 0 0 -0.6 5.2 -1.4 6.8 0 0 -7.8 12.8 -7.8 15.2 s 1.2 12.2 1.6 12.8 -1 -1.6 2.8 0.8 6.6 4 7.4 6.8 -2 -5.4 -2.2 -7.2 -4.4 -9 -3.6 -11.4 c 0 0 1 1 1.8 2.4 0 0 -0.6 -0.6 0 -4.2 0 0 0.8 -5.2 2.2 -8.4 s 3.4 -7 3.8 -7.8 0.4 -6.6 1.8 -4 l 3.4 2.6 s -2.8 -2.6 -0.6 -4.8 c 0 0 -1 -5.6 0.8 -8.2 0 0 7 -8.4 8.6 -9.4 s 0.2 -0.6 0.2 -0.6 6 -4.2 0.2 -2.6 c 0 0 -4 1.6 -7 1.6 0 0 -7.6 2 -3.6 -2.2 s 14 -9.6 17.8 -9.4 l 0.8 1.6 l 11.2 -2.4 l -1.2 0.8 s -0.2 -0.2 4 -0.6 10 1 11.4 -0.8 4.8 -2.8 4.4 -1.4 -0.6 3.4 -0.6 3.4 5 -5.8 4.4 -3.6 -8.8 7.4 -10.2 13.6 l 10.4 -8.2 l 3.6 -3 s 3.6 2.2 3.8 0.6 4.8 -7.4 6 -7.2 3.2 -2.6 3 0 7.4 8 7.4 8 3.2 -1.8 4.6 -0.4 5.6 -19.8 5.6 -19.8 l 25 -10.6 l 43.6 -3.4 l -16.999 -6.8 l -61.001 -11.4 z " id="path444" />
				</g>
				<g id="g446" stroke="#4c0000" stroke-width="2">
					<path d="M 51.4 85 s -15 -16.8 -23.4 -19.4 c 0 0 -13.4 -6.8 -38 1 " id="path448" />
				</g>
				<g id="g450" stroke="#4c0000" stroke-width="2">
					<path d="M 24.8 64.2 s -25.2 -8 -40.6 -3.8 c 0 0 -18.4 2 -26.8 15.8 " id="path452" />
				</g>
				<g id="g454" stroke="#4c0000" stroke-width="2">
					<path d="M 21.2 63 s -17 -7.2 -31.8 -9.4 c 0 0 -16.6 -2.6 -33.2 4.6 0 0 -12.2 6 -17.6 16.2 " id="path456" />
				</g>
				<g id="g458" stroke="#4c0000" stroke-width="2">
					<path d="M 22.2 63.4 s -15.4 -11 -16.4 -12.4 c 0 0 -7 -11 -20 -11.4 0 0 -21.4 0.8 -38.6 8.8 " id="path460" />
				</g>
				<g fill="#000" id="g462">
					<path d="M 20.895 54.407 c 1.542 1.463 28.505 30.393 28.505 30.393 35.2 36.6 7.2 2.4 7.2 2.4 -7.6 -4.8 -16.8 -23.6 -16.8 -23.6 -1.2 -2.8 14 7.2 14 7.2 4 0.8 17.6 20 17.6 20 -6.8 -2.4 -2 4.8 -2 4.8 2.8 2 23.201 17.6 23.201 17.6 3.6 4 7.599 5.6 7.599 5.6 14 -5.2 7.6 8 7.6 8 2.4 6.8 8 -4.8 8 -4.8 11.2 -16.8 -5.2 -14.4 -5.2 -14.4 -30 2.8 -36.8 -13.2 -36.8 -13.2 -2.4 -2.4 6.4 0 6.4 0 8.401 2 -7.2 -12.4 -7.2 -12.4 2.4 0 11.6 6.8 11.6 6.8 10.401 9.2 12.401 7.2 12.401 7.2 17.999 -8.8 28.399 -1.2 28.399 -1.2 2 1.6 -3.6 8.4 -2 13.6 s 6.4 17.6 6.4 17.6 c -2.4 1.6 -2 12.4 -2 12.4 16.8 23.2 7.2 21.2 7.2 21.2 -15.6 -0.4 -0.8 7.2 -0.8 7.2 3.2 2 12 9.2 12 9.2 -2.8 -1.2 -4.4 4 -4.4 4 4.8 4 2 8.8 2 8.8 -6 1.2 -7.2 5.2 -7.2 5.2 6.8 8 -3.2 8.4 -3.2 8.4 3.6 4.4 -1.2 16.4 -1.2 16.4 -4.8 0 -11.2 5.6 -11.2 5.6 2.4 4.8 -8 10.4 -8 10.4 -8.4 1.6 -5.6 8.4 -5.6 8.4 -7.999 6 -10.399 22 -10.399 22 -0.8 10.4 -3.2 13.6 2 11.6 5.199 -2 4.399 -14.4 4.399 -14.4 -4.799 -15.6 38 -31.6 38 -31.6 4 -1.6 4.8 -6.8 4.8 -6.8 2 0.4 10.8 8 10.8 8 7.6 11.2 8 2 8 2 1.2 -3.6 -0.4 -9.6 -0.4 -9.6 6 -21.6 -8 -28 -8 -28 -10 -33.6 4 -25.2 4 -25.2 2.8 5.6 13.6 10.8 13.6 10.8 l 3.6 -2.4 c -1.6 -4.8 6.8 -10.8 6.8 -10.8 2.8 6.4 8.8 -1.6 8.8 -1.6 3.6 -24.4 16 -10 16 -10 4 1.2 5.2 -5.6 5.2 -5.6 3.6 -10.4 0 -24 0 -24 3.6 -0.4 13.2 5.6 13.2 5.6 2.8 -3.6 -6.4 -20.4 -2.4 -18 s 8.4 4 8.4 4 c 0.8 -2 -9.2 -14.4 -9.2 -14.4 -4.4 -2.8 -9.6 -23.2 -9.6 -23.2 7.2 3.6 -2.8 -11.6 -2.8 -11.6 0 -3.2 6 -14.4 6 -14.4 -0.8 -6.8 0 -6.4 0 -6.4 2.8 1.2 10.8 2.8 4 -3.6 s 0.8 -11.2 0.8 -11.2 c 4.4 -2.8 -9.2 -2.4 -9.2 -2.4 -5.2 -4.4 -4.8 -8.4 -4.8 -8.4 8 2 -6.4 -12.4 -8.8 -16 s 7.2 -8.8 7.2 -8.8 c 13.2 -3.6 1.6 -6.8 1.6 -6.8 -19.6 0.4 -8.8 -10.4 -8.8 -10.4 6 0.4 4.4 -2 4.4 -2 -5.2 -1.2 -14.8 -7.6 -14.8 -7.6 -4 -3.6 -0.4 -2.8 -0.4 -2.8 16.8 1.2 -12 -10 -12 -10 8 0 -10 -10.4 -10 -10.4 -2 -1.6 -5.2 -9.2 -5.2 -9.2 -6 -5.2 -10.8 -12 -10.8 -12 -0.4 -4.4 -5.2 -9.2 -5.2 -9.2 -11.6 -13.6 -17.2 -13.2 -17.2 -13.2 -14.8 -3.6 -20 -2.8 -20 -2.8 l -52.8 4.4 c -26.4 12.8 -18.6 33.8 -18.6 33.8 6.4 8.4 15.6 4.6 15.6 4.6 4.6 -6.2 16.2 -4 16.2 -4 20.401 3.2 17.801 -0.4 17.801 -0.4 -2.4 -4.6 -18.601 -10.8 -18.801 -11.4 s -9 -4 -9 -4 c -3 -1.2 -7.4 -10.4 -7.4 -10.4 -3.2 -3.4 12.6 2.4 12.6 2.4 -1.2 1 6.2 5 6.2 5 17.401 -1 28.001 9.8 28.001 9.8 10.799 16.6 10.999 8.4 10.999 8.4 2.8 -9.4 -9 -30.6 -9 -30.6 0.4 -2 8.6 4.6 8.6 4.6 1.4 -2 2.2 3.8 2.2 3.8 0.2 2.4 4 10.4 4 10.4 2.8 13 6.4 5.6 6.4 5.6 l 4.6 9.4 c 1.4 2.6 -4.6 10.2 -4.6 10.2 -0.2 2.8 0.6 2.6 -5 10.2 s -2.2 12 -2.2 12 c -1.4 6.6 7.4 6.2 7.4 6.2 2.6 2.2 6 2.2 6 2.2 1.8 2 4.2 1.4 4.2 1.4 1.6 -3.8 7.8 -1.8 7.8 -1.8 1.4 -2.4 9.6 -2.8 9.6 -2.8 1 -2.6 1.4 -4.2 4.8 -4.8 s -21.2 -43.6 -21.2 -43.6 c 6.4 -0.8 -1.8 -13.2 -1.8 -13.2 -2.2 -6.6 9.2 8 11.4 9.4 s 3.2 3.6 1.6 3.4 -3.4 2 -2 2.2 14.4 15.2 17.8 25.4 9.4 14.2 15.6 20.2 5.4 30.2 5.4 30.2 c -0.4 8.8 5.6 19.4 5.6 19.4 2 3.8 -2.2 22 -2.2 22 -2 2.2 -0.6 3 -0.6 3 1 1.2 7.8 14.4 7.8 14.4 -1.8 -0.2 1.8 3.4 1.8 3.4 5.2 6 -1.2 3 -1.2 3 -6 -1.6 1 8.2 1 8.2 1.2 1.8 -7.8 -2.8 -7.8 -2.8 -9.2 -0.6 2.4 6.6 2.4 6.6 8.6 7.2 -2.8 2.8 -2.8 2.8 -4.6 -1.8 -1.4 5 -1.4 5 3.2 1.6 20.4 8.6 20.4 8.6 0.4 3.8 -2.6 8.8 -2.6 8.8 0.4 4 -1.8 7.4 -1.8 7.4 -1.2 8.2 -1.8 9 -1.8 9 -4.2 0.2 -11.6 14 -11.6 14 -1.8 2.6 -12 14.6 -12 14.6 -2 7 -20 -0.2 -20 -0.2 -6.6 3.4 -4.6 0 -4.6 0 -0.4 -2.2 4.4 -8.2 4.4 -8.2 7 -2.6 4.4 -13.4 4.4 -13.4 4 -1.4 -7.2 -4.2 -7 -5.4 s 6 -2.6 6 -2.6 c 8 -2 3.6 -4.4 3.6 -4.4 -0.6 -4 2.4 -9.6 2.4 -9.6 11.6 -0.8 0 -17 0 -17 -10.8 -7.6 -11.8 -13.4 -11.8 -13.4 12.6 -8.2 4.4 -20.6 4.6 -24.2 s 1.4 -25.2 1.4 -25.2 c -2 -6.2 -5 -19.8 -5 -19.8 2.2 -5.2 9.6 -17.8 9.6 -17.8 2.8 -4.2 11.6 -9 9.4 -12 s -10 -1.2 -10 -1.2 c -7.8 -1.4 -7.2 3.8 -7.2 3.8 -1.6 1 -2.4 6 -2.4 6 -0.72 7.933 -9.6 14.2 -9.6 14.2 -11.2 6.2 -2 10.2 -2 10.2 6 6.6 -3.8 6.8 -3.8 6.8 -11 -1.8 -2.8 8.4 -2.8 8.4 10.8 12.8 7.8 15.6 7.8 15.6 -10.2 1 2.4 10.2 2.4 10.2 s -0.8 -2 -0.6 -0.2 3.2 6 4 8 -3.2 2.2 -3.2 2.2 c 0.6 9.6 -14.8 5.4 -14.8 5.4 l -1.6 0.2 c -1.6 0.2 -12.8 -0.6 -18.6 -2.8 s -12.599 -2.2 -12.599 -2.2 -4 1.8 -11.601 1.6 c -7.6 -0.2 -15.6 2.6 -15.6 2.6 -4.4 -0.4 4.2 -4.8 4.4 -4.6 s 5.8 -5.4 -2.2 -4.8 c -21.797 1.635 -32.6 -8.6 -32.6 -8.6 -2 -1.4 -4.6 -4.2 -4.6 -4.2 -10 -2 1.4 12.4 1.4 12.4 1.2 1.4 -0.2 2.4 -0.2 2.4 -0.8 -1.6 -8.6 -7 -8.6 -7 -2.811 -0.973 -4.174 -2.307 -6.505 -4.793 z " id="path464" />
				</g>
				<g fill="#4c0000" id="g466">
					<path d="M -3 42.8 s 11.6 5.6 14.2 8.4 16.6 14.2 16.6 14.2 -5.4 -2 -8 -3.8 -13.4 -10 -13.4 -10 -3.8 -6 -9.4 -8.8 z " id="path468" />
				</g>
				<g fill="#99cc32" id="g470">
					<path d="M -61.009 11.603 c 0.337 -0.148 -0.187 -2.86 -0.391 -3.403 -1.022 -2.726 -10 -4.2 -10 -4.2 -0.227 1.365 -0.282 2.961 -0.176 4.599 0 0 4.868 5.519 10.567 3.004 z " id="path472" />
				</g>
				<g fill="#659900" id="g474">
					<path d="M -61.009 11.403 c -0.449 0.158 -0.015 -2.734 -0.191 -3.203 -1.022 -2.726 -10.2 -4.3 -10.2 -4.3 -0.227 1.365 -0.282 2.961 -0.176 4.599 0 0 4.268 5.119 10.567 2.904 z " id="path476" />
				</g>
				<g fill="#000" id="g478">
					<path d="M -65.4 11.546 c -0.625 0 -1.131 -1.14 -1.131 -2.546 0 -1.405 0.506 -2.545 1.131 -2.545 s 1.132 1.14 1.132 2.545 c 0 1.406 -0.507 2.546 -1.132 2.546 z " id="path480" />
				</g>
				<g fill="#000" id="g482">
					<path d="M -65.4 9 z " id="path484" />
				</g>
				<g fill="#000" id="g486">
					<path d="M -111 109.6 s -5.6 10 19.2 4 c 0 0 14 -1.2 16.4 -3.6 1.2 0.8 9.566 3.73 12.4 4.4 6.8 1.6 15.2 -8.4 15.2 -8.4 s 4.6 -10.5 7.4 -10.5 -0.4 1.6 -0.4 1.6 -6.6 10.1 -6.2 11.7 c 0 0 -5.2 20 -21.2 20.8 0 0 -16.15 0.95 -14.8 6.8 0 0 8.8 -2.4 11.2 0 0 0 10.8 -0.4 2.8 6 l -6.8 11.6 s 0.14 3.92 -10 0.4 c -9.8 -3.4 -20.1 -16.3 -20.1 -16.3 s -15.95 -14.55 -5.1 -28.5 z " id="path488" />
				</g>
				<g fill="#e59999" id="g490">
					<path d="M -112.2 113.6 s -2 9.6 34.8 -0.8 l 6.8 0.8 c 2.4 0.8 14.4 3.6 16.4 2.4 0 0 -7.2 13.6 -18.8 12 0 0 -13.2 1.6 -12.8 6.4 0 0 4 7.2 8.8 9.6 0 0 2.8 2.4 2.4 5.6 s -3.2 4.8 -5.2 5.6 -5.2 -2.4 -6.8 -2.4 -10 -6.4 -14.4 -11.2 -12.8 -16.8 -12.4 -19.6 1.2 -8.4 1.2 -8.4 z " id="path492" />
				</g>
				<g fill="#b26565" id="g494">
					<path d="M -109 131.05 c 2.6 3.95 5.8 8.15 8 10.55 4.4 4.8 12.8 11.2 14.4 11.2 s 4.8 3.2 6.8 2.4 4.8 -2.4 5.2 -5.6 -2.4 -5.6 -2.4 -5.6 c -3.066 -1.53 -5.806 -5.02 -7.385 -7.35 0 0 0.185 2.55 -5.015 1.75 s -10.4 -3.6 -12 -6.8 -4 -5.6 -2.4 -2 4 7.2 5.6 7.6 1.2 1.6 -1.2 1.2 -5.2 -0.8 -9.6 -6 z " id="path496" />
				</g>
				<g fill="#992600" id="g498">
					<path d="M -111.6 110 s 1.8 -13.6 3 -17.6 c 0 0 -0.8 -6.8 1.6 -11 s 4.4 -10.4 7.4 -15.8 3.2 -9.4 7.2 -11 10 -10.2 12.8 -11.2 2.6 -0.2 2.6 -0.2 6.8 -14.8 20.4 -10.8 c 0 0 -16.2 -2.8 -0.4 -12.2 0 0 -4.8 1.1 -1.5 -5.9 2.201 -4.668 1.7 2.1 -9.3 13.9 0 0 -5 8.6 -10.2 11.6 s -17.2 10 -18.4 13.8 -4.4 9.6 -6.4 11.2 -4.8 5.8 -5.2 9.2 c 0 0 -1.2 4 -2.6 5.2 s -1.6 4.4 -1.6 6.4 -2 4.8 -1.8 7.2 c 0 0 0.8 19 0.4 21 l 2 -3.8 z " id="path500" />
				</g>
				<g fill="#FFF" id="g502">
					<path d="M -120.2 114.6 s -2 -1.4 -6.4 4.6 c 0 0 7.3 33 7.3 34.4 0 0 1.1 -2.1 -0.2 -9.3 s -2.2 -19.9 -2.2 -19.9 l 1.5 -9.8 z " id="path504" />
				</g>
				<g fill="#992600" id="g506">
					<path d="M -98.6 54 s -17.6 3.2 -17.2 32.4 l -0.8 24.8 s -1.2 -25.6 -2.4 -27.2 2.8 -12.8 -0.4 -6.8 c 0 0 -14 14 -6 35.2 0 0 1.5 3.3 -1.5 -1.3 0 0 -4.6 -12.6 -3.5 -19 0 0 0.2 -2.2 2.1 -5 0 0 8.6 -11.7 11.3 -14 0 0 1.8 -14.4 17.2 -19.6 0 0 5.7 -2.3 1.2 0.5 z " id="path508" />
				</g>
				<g fill="#000" id="g510">
					<path d="M 40.8 -12.2 c 0.66 -0.354 0.651 -1.324 1.231 -1.497 1.149 -0.344 1.313 -1.411 1.831 -2.195 0.873 -1.319 1.066 -2.852 1.648 -4.343 0.272 -0.7 0.299 -1.655 -0.014 -2.315 -1.174 -2.481 -1.876 -4.93 -3.318 -7.356 -0.268 -0.45 -0.53 -1.244 -0.731 -1.842 -0.463 -1.384 -1.72 -2.375 -2.58 -3.695 -0.288 -0.441 0.237 -1.366 -0.479 -1.45 -0.897 -0.105 -2.346 -0.685 -2.579 0.341 -0.588 2.587 0.423 5.11 1.391 7.552 -0.782 0.692 -0.448 1.613 -0.296 2.38 0.71 3.606 -0.488 6.958 -1.249 10.432 -0.023 0.104 0.319 0.302 0.291 0.364 -1.222 2.686 -2.674 5.131 -4.493 7.512 -0.758 0.992 -1.63 1.908 -2.127 2.971 -0.368 0.787 -0.776 1.753 -0.526 2.741 -3.435 2.78 -5.685 6.625 -8.296 10.471 -0.462 0.68 -0.171 1.889 0.38 2.158 0.813 0.398 1.769 -0.626 2.239 -1.472 0.389 -0.698 0.742 -1.348 1.233 -1.991 0.133 -0.175 -0.046 -0.594 0.089 -0.715 2.633 -2.347 4.302 -5.283 6.755 -7.651 1.95 -0.329 3.487 -1.327 5.235 -2.34 0.308 -0.179 0.832 0.07 1.122 -0.125 1.753 -1.177 1.751 -3.213 1.857 -5.123 0.05 -0.884 0.246 -2.201 1.386 -2.812 z " id="path512" />
				</g>
				<g fill="#000" id="g514">
					<path d="M 31.959 -16.666 c 0.124 -0.077 -0.031 -0.5 0.078 -0.716 0.162 -0.324 0.565 -0.512 0.727 -0.836 0.109 -0.216 -0.054 -0.596 0.082 -0.738 2.333 -2.447 2.59 -5.471 1.554 -8.444 1.024 -0.62 1.085 -1.882 0.66 -2.729 -0.853 -1.7 -1.046 -3.626 -2.021 -5.169 -0.802 -1.269 -2.38 -2.513 -3.751 -1.21 -0.421 0.4 -0.742 1.187 -0.464 1.899 0.064 0.163 0.349 0.309 0.322 0.391 -0.107 0.324 -0.653 0.548 -0.659 0.82 -0.03 1.496 -0.984 3.007 -0.354 4.336 0.772 1.629 1.591 3.486 2.267 5.262 -1.234 2.116 -0.201 4.565 -1.954 6.442 -0.136 0.146 -0.127 0.532 -0.005 0.734 0.292 0.486 0.698 0.892 1.184 1.184 0.202 0.121 0.55 0.123 0.75 -0.001 0.578 -0.362 0.976 -0.849 1.584 -1.225 z " id="path516" />
				</g>
				<g fill="#000" id="g518">
					<path d="M 94.771 -26.977 c 1.389 1.792 1.679 4.587 -0.37 5.977 0.55 3.309 3.901 1.33 5.999 0.8 -0.11 -0.388 0.12 -0.732 0.4 -0.737 1.06 -0.015 1.74 -1.047 2.8 -0.863 0.44 -1.557 2.07 -2.259 2.72 -3.639 1.72 -3.695 1.13 -7.968 -1.45 -11.214 -0.2 -0.254 0.01 -0.771 -0.11 -1.133 -0.76 -2.211 -2.82 -2.526 -4.76 -3.214 -1.176 -3.875 -1.837 -7.906 -3.599 -11.6 -1.614 -0.25 -2.312 -1.989 -3.649 -2.709 -1.333 -0.719 -1.901 0.86 -1.86 1.906 0.007 0.205 0.459 0.429 0.289 0.794 -0.076 0.164 -0.336 0.275 -0.336 0.409 0.001 0.135 0.222 0.266 0.356 0.4 -0.918 0.82 -2.341 1.297 -2.636 2.442 -0.954 3.71 1.619 6.835 3.287 10.036 0.591 1.135 -0.145 2.406 -0.905 3.614 -0.438 0.695 -0.33 1.822 -0.054 2.678 0.752 2.331 2.343 4.07 3.878 6.053 z " id="path520" />
				</g>
				<g fill="#000" id="g522">
					<path d="M 57.611 -8.591 c -1.487 1.851 -4.899 4.42 -1.982 6.348 0.194 0.129 0.564 0.133 0.737 -0.001 2.021 -1.565 4.024 -2.468 6.46 -3.05 0.124 -0.029 0.398 0.438 0.767 0.277 1.613 -0.703 3.623 -0.645 4.807 -1.983 3.767 0.224 7.332 -0.892 10.723 -2.2 1.161 -0.448 2.431 -1.007 3.632 -1.509 1.376 -0.576 2.58 -1.504 3.692 -2.645 0.133 -0.136 0.487 -0.046 0.754 -0.046 -0.04 -0.863 0.922 -0.99 1.169 -1.612 0.092 -0.232 -0.058 -0.628 0.075 -0.73 2.138 -1.63 3.058 -3.648 1.889 -6.025 -0.285 -0.578 -0.534 -1.196 -1.1 -1.672 -1.085 -0.911 -2.187 -0.057 -3.234 -0.361 -0.159 0.628 -0.888 0.456 -1.274 0.654 -0.859 0.439 -2.192 -0.146 -3.051 0.292 -1.362 0.695 -2.603 0.864 -4.025 1.241 -0.312 0.082 -1.09 -0.014 -1.25 0.613 -0.134 -0.134 -0.282 -0.368 -0.388 -0.346 -1.908 0.396 -3.168 0.61 -4.469 2.302 -0.103 0.133 -0.545 -0.046 -0.704 0.089 -0.957 0.808 -1.362 2.042 -2.463 2.714 -0.201 0.123 -0.553 -0.045 -0.747 0.084 -0.646 0.431 -1.013 1.072 -1.655 1.519 -0.329 0.229 -0.729 -0.096 -0.697 -0.352 0.245 -1.947 0.898 -3.734 0.323 -5.61 2.077 -2.52 4.594 -4.469 6.4 -7.2 0.015 -2.166 0.707 -4.312 0.594 -6.389 -0.01 -0.193 -0.298 -0.926 -0.424 -1.273 -0.312 -0.854 0.594 -1.92 -0.25 -2.644 -1.404 -1.203 -2.696 -0.327 -3.52 1.106 -1.838 0.39 -3.904 1.083 -5.482 -0.151 -1.007 -0.787 -1.585 -1.693 -2.384 -2.749 -0.985 -1.302 -0.65 -2.738 -0.58 -4.302 0.006 -0.128 -0.309 -0.264 -0.309 -0.398 0.001 -0.135 0.221 -0.266 0.355 -0.4 -0.706 -0.626 -0.981 -1.684 -2 -2 0.305 -1.092 -0.371 -1.976 -1.242 -2.278 -1.995 -0.691 -3.672 1.221 -5.564 1.294 -0.514 0.019 -0.981 -1.019 -1.63 -1.344 -0.432 -0.216 -1.136 -0.249 -1.498 0.017 -0.688 0.504 -1.277 0.618 -2.035 0.823 -1.617 0.436 -2.895 1.53 -4.375 2.385 -1.485 0.857 -2.44 2.294 -3.52 3.614 -0.941 1.152 -1.077 3.566 0.343 4.066 1.843 0.65 3.147 -2.053 5.113 -1.727 0.312 0.051 0.518 0.362 0.408 0.75 0.389 0.109 0.607 -0.12 0.8 -0.4 0.858 1.019 2.022 1.356 2.96 2.229 0.97 0.904 2.716 0.486 3.731 1.483 1.529 1.502 0.97 4.183 2.909 5.488 -0.586 1.313 -1.193 2.59 -1.528 4.017 -0.282 1.206 0.712 2.403 1.923 2.312 1.258 -0.094 1.52 -0.853 2.005 -1.929 0.267 0.267 0.736 0.564 0.695 0.78 -0.457 2.387 -1.484 4.38 -1.942 6.811 -0.059 0.317 -0.364 0.519 -0.753 0.409 -0.468 4.149 -4.52 6.543 -7.065 9.708 -0.403 0.502 -0.407 1.751 0.002 2.154 1.403 1.387 3.363 -0.159 5.063 -0.662 0.213 -1.206 1.072 -2.148 2.404 -2.092 0.256 0.01 0.491 -0.532 0.815 -0.662 0.348 -0.138 0.85 0.086 1.136 -0.112 1.729 -1.195 3.137 -2.301 4.875 -3.49 0.192 -0.131 0.536 0.028 0.752 -0.08 0.325 -0.162 0.512 -0.549 0.835 -0.734 0.348 -0.2 0.59 0.09 0.783 0.37 -0.646 0.349 -0.65 1.306 -1.232 1.508 -0.775 0.268 -1.336 0.781 -2.01 1.228 -0.292 0.193 -0.951 -0.055 -1.055 0.124 -0.598 1.028 -1.782 1.466 -2.492 2.349 z " id="path524" />
				</g>
				<g fill="#000" id="g526">
					<path d="M 2.2 -58 s -9.238 -2.872 -20.4 22.8 c 0 0 -2.4 5.2 -4.8 7.2 s -13.6 5.6 -15.6 9.6 l -10.4 16 s 14.8 -16 18 -18.4 c 0 0 8 -8.4 4.8 -1.6 0 0 -14 10.8 -12.8 20 0 0 -5.6 14.4 -6.4 16.4 0 0 16 -32 18.4 -33.2 s 3.6 -1.2 2.4 2.4 -1.6 20 -4.4 22 c 0 0 8 -20.4 7.2 -23.6 0 0 3.2 -3.6 5.6 1.6 l -1.2 16 l 4.4 12 s -2.4 -11.2 -0.8 -26.8 c 0 0 -2 -10.4 2 -4.8 s 13.6 11.6 13.6 16.4 c 0 0 -5.2 -17.6 -14.4 -22.4 l -4 6 l -1.2 -2 s -3.6 -0.8 0.8 -7.6 4 -7.6 4 -7.6 6.4 7.2 8 7.2 c 0 0 13.2 -7.6 14.4 16.8 0 0 6.8 -14.4 -2.4 -21.2 0 0 -14.8 -2 -13.6 -7.2 l 7.2 -12.4 c 3.6 -5.2 2 -2.4 2 -2.4 z " id="path528" />
				</g>
				<g fill="#000" id="g530">
					<path d="m -17.8 -41.6 l -16 5.2 l -7.2 9.6 s 17.2 -10 21.2 -11.2 2 -3.6 2 -3.6 z " id="path532" />
				</g>
				<g fill="#000" id="g534">
					<path d="M -57.8 -35.2 s -2 1.2 -2.4 4 -2.8 3.2 -2 6 2.8 5.2 2.8 1.2 1.6 -6 2.4 -7.2 2.4 -5.6 -0.8 -4 z " id="path536" />
				</g>
				<g fill="#000" id="g538">
					<path d="M -66.6 26 s -8.4 -4 -11.6 -7.6 -2.748 1.566 -7.6 1.2 c -5.847 -0.441 -4.8 -16.4 -4.8 -16.4 l -4 7.6 s -1.2 14.4 6.8 12 c 3.907 -1.172 5.2 0.4 3.6 1.2 s 5.6 1.2 2.8 2.8 11.6 -3.6 9.2 6.8 l 5.6 -7.6 z " id="path540" />
				</g>
				<g fill="#000" id="g542">
					<path d="M -79.2 40.4 s -15.4 4.4 -19 -5.2 c 0 0 -4.8 2.4 -2.6 5.4 s 3.4 3.4 3.4 3.4 5.4 1.2 4.8 2 -3 4.2 -3 4.2 10.2 -6 16.4 -9.8 z " id="path544" />
				</g>
				<g fill="#FFF" id="g546">
					<path d="M 149.2 118.6 c -0.43 2.14 -2.1 2.94 -4 3.6 -1.92 -0.96 -4.51 -4.06 -6.4 -2 -0.47 -0.48 -1.25 -0.54 -1.6 -1.2 -0.46 -0.9 -0.19 -1.94 -0.53 -2.74 -0.55 -1.28 -1.25 -2.64 -1.07 -4.06 1.81 -0.71 2.4 -2.62 1.93 -4.38 -0.07 -0.26 -0.5 -0.45 -0.3 -0.8 0.19 -0.33 0.5 -0.55 0.77 -0.82 -0.13 0.14 -0.28 0.37 -0.39 0.35 -0.61 -0.11 -0.49 -0.75 -0.36 -1.13 0.59 -1.75 2.6 -2.01 3.95 -0.82 0.26 -0.56 0.77 -0.37 1.2 -0.4 -0.05 -0.58 0.36 -1.11 0.56 -1.53 0.52 -1.09 2.14 0.01 2.94 -0.6 1.08 -0.83 2.14 -1.52 3.22 -0.92 1.81 1.01 3.52 2.22 4.72 3.97 0.57 0.83 0.81 2.11 0.75 3.07 -0.04 0.65 -1.42 0.29 -1.76 1.22 -0.65 1.75 1.19 2.27 1.94 3.61 0.2 0.35 -0.06 0.65 -0.38 0.75 -0.41 0.13 -1.19 -0.06 -1.06 0.39 0.98 3.19 -1.78 3.87 -4.13 4.44 z " id="path548" />
				</g>
				<g fill="#FFF" id="g550">
					<path d="M 139.6 138.2 c -0.01 -1.74 -1.61 -3.49 -0.4 -5.2 0.14 0.14 0.27 0.36 0.4 0.36 0.14 0 0.27 -0.22 0.4 -0.36 1.5 2.22 5.15 3.14 5.01 5.99 -0.03 0.45 -1.11 1.37 -0.21 2.01 -1.81 1.35 -1.87 3.72 -2.8 5.6 -1.24 -0.28 -2.45 -0.65 -3.6 -1.2 0.35 -1.48 0.24 -3.17 1.06 -4.49 0.43 -0.7 0.14 -1.78 0.14 -2.71 z " id="path552" />
				</g>
				<g fill="#CCC" id="g554">
					<path d="M -26.6 129.2 s -16.858 10.14 -2.8 -5.2 c 8.8 -9.6 18.8 -15.2 18.8 -15.2 s 10.4 -4.4 14 -5.6 18.8 -6.4 22 -6.8 12.8 -4.4 19.6 -0.4 14.8 8.4 14.8 8.4 -16.4 -8.4 -20 -6 -10.8 2 -16.8 5.2 c 0 0 -14.8 4.4 -18 6.4 s -13.6 13.6 -15.2 12.8 0.4 -1.2 1.6 -4 -0.8 -4.4 -8.8 2 -9.2 8.4 -9.2 8.4 z " id="path556" />
				</g>
				<g fill="#000" id="g558">
					<path d="M -19.195 123.23 s 1.41 -13.04 9.888 -11.37 c 0 0 8.226 -4.17 10.948 -6.14 0 0 8.139 -1.7 9.449 -2.32 18.479 -8.698 33.198 -4.179 33.745 -5.299 0.546 -1.119 20.171 5.999 23.78 10.079 0.391 0.45 -10.231 -5.59 -19.929 -7.48 -8.273 -1.617 -29.875 0.24 -40.781 5.78 -2.973 1.51 -11.918 7.29 -14.449 7.18 s -12.651 9.57 -12.651 9.57 z " id="path560" />
				</g>
				<g fill="#CCC" id="g562">
					<path d="M -23 148.8 s -15.2 -2.4 1.6 -4 c 0 0 18 -2 22 -7.2 0 0 13.6 -9.2 16.4 -9.6 s 32.8 -7.6 33.2 -10 6 -2.4 7.6 -1.6 0.8 2 -2 2.8 -34 17.2 -40.4 18.4 -18 8.8 -22.8 10 -15.6 1.2 -15.6 1.2 z " id="path564" />
				</g>
				<g fill="#000" id="g566">
					<path d="M -3.48 141.4 s -8.582 -0.83 0.019 -1.64 c 0 0 8.816 -3.43 10.864 -6.09 0 0 6.964 -4.71 8.397 -4.92 1.434 -0.2 15.394 -3.89 15.599 -5.12 s 34.271 -13.81 38.691 -10.62 c 2.911 2.1 -6.99 0.43 -16.624 4.84 -1.355 0.62 -35.208 15.2 -38.485 15.82 -3.277 0.61 -9.216 4.5 -11.674 5.12 -2.457 0.61 -6.787 2.61 -6.787 2.61 z " id="path568" />
				</g>
				<g fill="#000" id="g570">
					<path d="M -11.4 143.6 s 5.2 -0.4 4 1.2 -3.6 0.8 -3.6 0.8 l -0.4 -2 z " id="path572" />
				</g>
				<g fill="#000" id="g574">
					<path d="M -18.6 145.2 s 5.2 -0.4 4 1.2 -3.6 0.8 -3.6 0.8 l -0.4 -2 z " id="path576" />
				</g>
				<g fill="#000" id="g578">
					<path d="M -29 146.8 s 5.2 -0.4 4 1.2 -3.6 0.8 -3.6 0.8 l -0.4 -2 z " id="path580" />
				</g>
				<g fill="#000" id="g582">
					<path d="M -36.6 147.6 s 5.2 -0.4 4 1.2 -3.6 0.8 -3.6 0.8 l -0.4 -2 z " id="path584" />
				</g>
				<g fill="#000" id="g586">
					<path d="m 1.8 108 l 3.2 1.6 c -1.2 1.6 -4.4 1.2 -4.4 1.2 l 1.2 -2.8 z " id="path588" />
				</g>
				<g fill="#000" id="g590">
					<path d="M -8.2 113.6 s 6.506 -2.14 4 1.2 c -1.2 1.6 -3.6 0.8 -3.6 0.8 l -0.4 -2 z " id="path592" />
				</g>
				<g fill="#000" id="g594">
					<path d="M -19.4 118.4 s 5.2 -0.4 4 1.2 -3.6 0.8 -3.6 0.8 l -0.4 -2 z " id="path596" />
				</g>
				<g fill="#000" id="g598">
					<path d="M -27 124.4 s 5.2 -0.4 4 1.2 -3.6 0.8 -3.6 0.8 l -0.4 -2 z " id="path600" />
				</g>
				<g fill="#000" id="g602">
					<path d="M -33.8 129.2 s 5.2 -0.4 4 1.2 -3.6 0.8 -3.6 0.8 l -0.4 -2 z " id="path604" />
				</g>
				<g fill="#000" id="g606">
					<path d="M 5.282 135.6 s 6.921 -0.53 5.324 1.6 c -1.597 2.12 -4.792 1.06 -4.792 1.06 l -0.532 -2.66 z " id="path608" />
				</g>
				<g fill="#000" id="g610">
					<path d="M 15.682 130.8 s 6.921 -0.53 5.324 1.6 c -1.597 2.12 -4.792 1.06 -4.792 1.06 l -0.532 -2.66 z " id="path612" />
				</g>
				<g fill="#000" id="g614">
					<path d="M 26.482 126.4 s 6.921 -0.53 5.324 1.6 c -1.597 2.12 -4.792 1.06 -4.792 1.06 l -0.532 -2.66 z " id="path616" />
				</g>
				<g fill="#000" id="g618">
					<path d="M 36.882 121.6 s 6.921 -0.53 5.324 1.6 c -1.597 2.12 -4.792 1.06 -4.792 1.06 l -0.532 -2.66 z " id="path620" />
				</g>
				<g fill="#000" id="g622">
					<path d="M 9.282 103.6 s 6.921 -0.53 5.324 1.6 c -1.597 2.12 -5.592 1.86 -5.592 1.86 l 0.268 -3.46 z " id="path624" />
				</g>
				<g fill="#000" id="g626">
					<path d="M 19.282 100.4 s 6.921 -0.534 5.324 1.6 c -1.597 2.12 -5.992 1.86 -5.992 1.86 l 0.668 -3.46 z " id="path628" />
				</g>
				<g fill="#000" id="g630">
					<path d="M -3.4 140.4 s 5.2 -0.4 4 1.2 -3.6 0.8 -3.6 0.8 l -0.4 -2 z " id="path632" />
				</g>
				<g fill="#992600" id="g634">
					<path d="M -76.6 41.2 s -4.4 8.8 -4.8 12 c 0 0 0.8 -8.8 2 -10.8 s 2.8 -1.2 2.8 -1.2 z " id="path636" />
				</g>
				<g fill="#992600" id="g638">
					<path d="M -95 55.2 s -3.2 14.4 -2.8 17.2 c 0 0 -1.2 -11.6 -0.8 -12.8 s 3.6 -4.4 3.6 -4.4 z " id="path640" />
				</g>
				<g fill="#CCC" id="g642">
					<path d="m -74.2 -19.4 l -0.2 3.2 l -2.2 0.2 s 14.2 12.6 14.8 20.2 c 0 0 0.8 -8.2 -12.4 -23.6 z " id="path644" />
				</g>
				<g fill="#000" id="g646">
					<path d="M -70.216 -18.135 c -0.431 -0.416 -0.212 -1.161 -0.62 -1.421 -0.809 -0.516 1.298 -0.573 1.07 -1.289 -0.383 -1.206 -0.196 -1.227 -0.318 -2.503 -0.057 -0.598 0.531 -2.138 0.916 -2.578 1.446 -1.652 0.122 -4.584 1.762 -6.135 0.304 -0.289 0.68 -0.841 0.965 -1.259 0.659 -0.963 1.843 -1.451 2.793 -2.279 0.318 -0.276 0.117 -1.103 0.686 -1.011 0.714 0.115 1.955 -0.015 1.91 0.826 -0.113 2.12 -1.442 3.84 -2.722 5.508 0.451 0.704 -0.007 1.339 -0.291 1.896 -1.335 2.62 -1.146 5.461 -1.32 8.301 -0.005 0.085 -0.312 0.163 -0.304 0.216 0.353 2.335 0.937 4.534 1.816 6.763 0.366 0.93 0.837 1.825 0.987 2.752 0.111 0.686 0.214 1.519 -0.194 2.224 2.035 2.89 0.726 5.541 1.895 9.072 0.207 0.625 1.899 2.539 1.436 2.378 -2.513 -0.871 -2.625 -1.269 -2.802 -2.022 -0.146 -0.623 -0.476 -2 -0.713 -2.602 -0.064 -0.164 -0.235 -2.048 -0.313 -2.17 -1.513 -2.382 -0.155 -2.206 -1.525 -4.564 -1.428 -0.68 -2.394 -1.784 -3.517 -2.946 -0.198 -0.204 0.945 -0.928 0.764 -1.141 -1.092 -1.289 -2.245 -2.056 -1.909 -3.549 0.155 -0.69 0.292 -1.747 -0.452 -2.467 z " id="path648" />
				</g>
				<g fill="#000" id="g650">
					<path d="M -73.8 -16.4 s 0.4 6.8 2.8 8.4 1.2 0.8 -2 -0.4 -2 -2 -2 -2 -2.8 0.4 -0.4 2.4 6 4.4 4.4 4.4 -9.2 -4 -9.2 -6.8 -1 -6.9 -1 -6.9 1.1 -0.8 5.9 -0.7 c 0 0 1.4 0.7 1.5 1.6 z " id="path652" />
				</g>
				<g fill="#FFF" id="g654" stroke="#000" stroke-width="0.1">
					<path d="M -74.6 2.2 s -8.52 -2.791 -27 0.6 c 0 0 9.031 -2.078 27.8 0.2 10.3 1.25 -0.8 -0.8 -0.8 -0.8 z " id="path656" />
				</g>
				<g fill="#FFF" id="g658" stroke="#000" stroke-width="0.1">
					<path d="M -72.502 2.129 s -8.246 -3.518 -26.951 -1.737 c 0 0 9.178 -1.289 27.679 2.603 10.154 2.136 -0.728 -0.866 -0.728 -0.866 z " id="path660" />
				</g>
				<g fill="#FFF" id="g662" stroke="#000" stroke-width="0.1">
					<path d="M -70.714 2.222 s -7.962 -4.121 -26.747 -3.736 c 0 0 9.248 -0.604 27.409 4.654 9.966 2.885 -0.662 -0.918 -0.662 -0.918 z " id="path664" />
				</g>
				<g fill="#FFF" id="g666" stroke="#000" stroke-width="0.1">
					<path d="M -69.444 2.445 s -6.824 -4.307 -23.698 -5.405 c 0 0 8.339 0.17 24.22 6.279 8.716 3.353 -0.522 -0.874 -0.522 -0.874 z " id="path668" />
				</g>
				<g fill="#FFF" id="g670" stroke="#000" stroke-width="0.1">
					<path d="M 45.84 12.961 s -0.93 0.644 -0.716 -0.537 c 0.215 -1.181 28.423 -14.351 32.037 -14.101 0 0 -30.248 13.206 -31.321 14.638 z " id="path672" />
				</g>
				<g fill="#FFF" id="g674" stroke="#000" stroke-width="0.1">
					<path d="M 42.446 13.6 s -0.876 0.715 -0.755 -0.479 27.208 -16.539 30.83 -16.573 c 0 0 -29.117 15.541 -30.075 17.052 z " id="path676" />
				</g>
				<g fill="#FFF" id="g678" stroke="#000" stroke-width="0.1">
					<path d="M 39.16 14.975 s -0.828 0.772 -0.786 -0.428 c 0.042 -1.199 19.859 -16.696 29.671 -18.57 0 0 -18.03 8.127 -28.885 18.998 z " id="path680" />
				</g>
				<g fill="#FFF" id="g682" stroke="#000" stroke-width="0.1">
					<path d="M 36.284 16.838 s -0.745 0.694 -0.707 -0.385 c 0.038 -1.08 17.872 -15.027 26.703 -16.713 0 0 -16.226 7.314 -25.996 17.098 z " id="path684" />
				</g>
				<g fill="#CCC" id="g686">
					<path d="M 4.6 164.8 s -15.2 -2.4 1.6 -4 c 0 0 18 -2 22 -7.2 0 0 13.6 -9.2 16.4 -9.6 s 19.2 -4 19.6 -6.4 6.4 -4.8 8 -4 1.6 10 -1.2 10.8 -21.6 8 -28 9.2 -18 8.8 -22.8 10 -15.6 1.2 -15.6 1.2 z " id="path688" />
				</g>
				<g fill="#000" id="g690">
					<path d="M 77.6 127.4 s -3 1.6 -4.2 4.2 c 0 0 -6.4 10.6 -20.6 13.8 0 0 -23 9 -30.8 11 0 0 -13.4 5 -20.8 4.2 0 0 -7 0.2 -0.8 1.8 0 0 20.2 -2 23.6 -3.8 0 0 15.6 -5.2 18.6 -7.8 s 21.2 -7.6 23.4 -9.6 12 -10.4 11.6 -13.8 z " id="path692" />
				</g>
				<g fill="#000" id="g694">
					<path d="M 18.882 158.91 s 5.229 -0.23 4.076 1.32 -3.601 0.68 -3.601 0.68 l -0.475 -2 z " id="path696" />
				</g>
				<g fill="#000" id="g698">
					<path d="M 11.68 160.26 s 5.228 -0.22 4.076 1.33 c -1.153 1.55 -3.601 0.67 -3.601 0.67 l -0.475 -2 z " id="path700" />
				</g>
				<g fill="#000" id="g702">
					<path d="M 1.251 161.51 s 5.229 -0.23 4.076 1.32 -3.601 0.68 -3.601 0.68 l -0.475 -2 z " id="path704" />
				</g>
				<g fill="#000" id="g706">
					<path d="M -6.383 162.06 s 5.229 -0.23 4.076 1.32 -3.601 0.67 -3.601 0.67 l -0.475 -1.99 z " id="path708" />
				</g>
				<g fill="#000" id="g710">
					<path d="M 35.415 151.51 s 6.96 -0.3 5.425 1.76 c -1.534 2.07 -4.793 0.9 -4.793 0.9 l -0.632 -2.66 z " id="path712" />
				</g>
				<g fill="#000" id="g714">
					<path d="M 45.73 147.09 s 5.959 -3.3 5.425 1.76 c -0.27 2.55 -4.793 0.9 -4.793 0.9 l -0.632 -2.66 z " id="path716" />
				</g>
				<g fill="#000" id="g718">
					<path d="M 54.862 144.27 s 7.159 -3.7 5.425 1.77 c -0.778 2.44 -4.794 0.9 -4.794 0.9 l -0.631 -2.67 z " id="path720" />
				</g>
				<g fill="#000" id="g722">
					<path d="M 64.376 139.45 s 4.359 -4.9 5.425 1.76 c 0.406 2.54 -4.793 0.9 -4.793 0.9 l -0.632 -2.66 z " id="path724" />
				</g>
				<g fill="#000" id="g726">
					<path d="M 26.834 156 s 5.228 -0.23 4.076 1.32 c -1.153 1.55 -3.602 0.68 -3.602 0.68 l -0.474 -2 z " id="path728" />
				</g>
				<g fill="#FFF" id="g730" stroke="#000" stroke-width="0.1">
					<path d="M 62.434 34.603 s -0.726 0.665 -0.727 -0.406 c 0 -1.07 17.484 -14.334 26.327 -15.718 0 0 -16.099 6.729 -25.6 16.124 z " id="path732" />
				</g>
				<g fill="#000" id="g734">
					<path d="M 65.4 98.4 s 22.001 22.4 31.201 26 c 0 0 9.199 11.2 5.199 37.2 0 0 -3.199 7.6 -6.399 -13.2 0 0 3.2 -25.2 -8 -9.2 0 0 -8.401 -9.9 -2.001 -9.6 0 0 3.201 2 3.601 0.4 s -7.601 -15.2 -24.801 -29.6 1.2 -2 1.2 -2 z " id="path736" />
				</g>
				<g fill="#FFF" id="g738" stroke="#000" stroke-width="0.1">
					<path d="M 7 137.2 s -0.2 -1.8 1.6 -1 96 7 127.6 31 c 0 0 -45.199 -23.2 -129.2 -30 z " id="path740" />
				</g>
				<g fill="#FFF" id="g742" stroke="#000" stroke-width="0.1">
					<path d="M 17.4 132.8 s -0.2 -1.8 1.6 -1 138.4 -0.2 162 32.2 c 0 0 -22 -25.2 -163.6 -31.2 z " id="path744" />
				</g>
				<g fill="#FFF" id="g746" stroke="#000" stroke-width="0.1">
					<path d="M 29 128.8 s -0.2 -1.8 1.6 -1 175.2 -12.2 198.8 20.2 c 0 0 -9.6 -25.6 -200.4 -19.2 z " id="path748" />
				</g>
				<g fill="#FFF" id="g750" stroke="#000" stroke-width="0.1">
					<path d="M 39 124 s -0.2 -1.8 1.6 -1 124 -37.8 147.6 -5.4 c 0 0 -13.4 -24.6 -149.2 6.4 z " id="path752" />
				</g>
				<g fill="#FFF" id="g754" stroke="#000" stroke-width="0.1">
					<path d="M -19 146.8 s -0.2 -1.8 1.6 -1 19.6 3 21.6 41.8 c 0 0 -7.2 -42 -23.2 -40.8 z " id="path756" />
				</g>
				<g fill="#FFF" id="g758" stroke="#000" stroke-width="0.1">
					<path d="M -27.8 148.4 s -0.2 -1.8 1.6 -1 16 -3.8 13.2 35 c 0 0 1.2 -35.2 -14.8 -34 z " id="path760" />
				</g>
				<g fill="#FFF" id="g762" stroke="#000" stroke-width="0.1">
					<path d="M -35.8 148.8 s -0.2 -1.8 1.6 -1 17.2 1.4 4.8 23.8 c 0 0 9.6 -24 -6.4 -22.8 z " id="path764" />
				</g>
				<g fill="#FFF" id="g766" stroke="#000" stroke-width="0.1">
					<path d="M 11.526 104.46 s -0.444 2 1.105 0.79 c 16.068 -12.628 48.51 -71.53 104.2 -77.164 0 0 -38.312 -12.11 -105.3 76.374 z " id="path768" />
				</g>
				<g fill="#FFF" id="g770" stroke="#000" stroke-width="0.1">
					<path d="M 22.726 102.66 s -1.363 -1.19 0.505 -1.81 c 1.868 -0.63 114.31 -73.13 153.6 -65.164 0 0 -27.11 -7.51 -154.1 66.974 z " id="path772" />
				</g>
				<g fill="#FFF" id="g774" stroke="#000" stroke-width="0.1">
					<path d="M 1.885 108.77 s -0.509 1.6 1.202 0.62 c 8.975 -5.12 12.59 -62.331 56.167 -63.586 0 0 -32.411 -14.714 -57.369 62.966 z " id="path776" />
				</g>
				<g fill="#FFF" id="g778" stroke="#000" stroke-width="0.1">
					<path d="M -18.038 119.79 s -1.077 1.29 0.876 1.03 c 10.246 -1.33 31.651 -42.598 76.09 -37.519 0 0 -31.966 -14.346 -76.966 36.489 z " id="path780" />
				</g>
				<g fill="#FFF" id="g782" stroke="#000" stroke-width="0.1">
					<path d="M -6.8 113.67 s -0.811 1.47 1.058 0.84 c 9.799 -3.27 22.883 -47.885 67.471 -51.432 0 0 -34.126 -7.943 -68.529 50.592 z " id="path784" />
				</g>
				<g fill="#FFF" id="g786" stroke="#000" stroke-width="0.1">
					<path d="M -25.078 124.91 s -0.873 1.04 0.709 0.84 c 8.299 -1.08 25.637 -34.51 61.633 -30.396 0 0 -25.893 -11.62 -62.342 29.556 z " id="path788" />
				</g>
				<g fill="#FFF" id="g790" stroke="#000" stroke-width="0.1">
					<path d="M -32.677 130.82 s -1.005 1.05 0.586 0.93 c 4.168 -0.31 34.806 -33.39 53.274 -17.89 0 0 -12.015 -18.721 -53.86 16.96 z " id="path792" />
				</g>
				<g fill="#FFF" id="g794" stroke="#000" stroke-width="0.1">
					<path d="M 36.855 98.898 s -1.201 -1.355 0.731 -1.74 c 1.932 -0.384 122.63 -58.097 160.59 -45.231 0 0 -25.94 -10.874 -161.32 46.971 z " id="path796" />
				</g>
				<g fill="#FFF" id="g798" stroke="#000" stroke-width="0.1">
					<path d="M 3.4 163.2 s -0.2 -1.8 1.6 -1 17.2 1.4 4.8 23.8 c 0 0 9.6 -24 -6.4 -22.8 z " id="path800" />
				</g>
				<g fill="#FFF" id="g802" stroke="#000" stroke-width="0.1">
					<path d="M 13.8 161.6 s -0.2 -1.8 1.6 -1 19.6 3 21.6 41.8 c 0 0 -7.2 -42 -23.2 -40.8 z " id="path804" />
				</g>
				<g fill="#FFF" id="g806" stroke="#000" stroke-width="0.1">
					<path d="M 20.6 160 s -0.2 -1.8 1.6 -1 26.4 4.2 50 36.6 c 0 0 -35.6 -36.8 -51.6 -35.6 z " id="path808" />
				</g>
				<g fill="#FFF" id="g810" stroke="#000" stroke-width="0.1">
					<path d="M 28.225 157.97 s -0.437 -1.76 1.453 -1.2 c 1.89 0.55 22.324 -1.35 60.421 32.83 0 0 -46.175 -34.94 -61.874 -31.63 z " id="path812" />
				</g>
				<g fill="#FFF" id="g814" stroke="#000" stroke-width="0.1">
					<path d="M 38.625 153.57 s -0.437 -1.76 1.453 -1.2 c 1.89 0.55 36.724 5.05 88.422 40.03 0 0 -74.176 -42.14 -89.875 -38.83 z " id="path816" />
				</g>
				<g fill="#FFF" id="g818" stroke="#000" stroke-width="0.1">
					<path d="M -1.8 142 s -0.2 -1.8 1.6 -1 55.2 3.4 85.6 30.2 c 0 0 -34.901 -24.77 -87.2 -29.2 z " id="path820" />
				</g>
				<g fill="#FFF" id="g822" stroke="#000" stroke-width="0.1">
					<path d="M -11.8 146 s -0.2 -1.8 1.6 -1 26.4 4.2 50 36.6 c 0 0 -35.6 -36.8 -51.6 -35.6 z " id="path824" />
				</g>
				<g fill="#FFF" id="g826" stroke="#000" stroke-width="0.1">
					<path d="M 49.503 148.96 s -0.565 -1.72 1.361 -1.3 c 1.926 0.41 36.996 2.34 91.116 33.44 0 0 -77.663 -34.4 -92.477 -32.14 z " id="path828" />
				</g>
				<g fill="#FFF" id="g830" stroke="#000" stroke-width="0.1">
					<path d="M 57.903 146.56 s -0.565 -1.72 1.361 -1.3 c 1.926 0.41 36.996 2.34 91.116 33.44 0 0 -77.063 -34.8 -92.477 -32.14 z " id="path832" />
				</g>
				<g fill="#FFF" id="g834" stroke="#000" stroke-width="0.1">
					<path d="M 67.503 141.56 s -0.565 -1.72 1.361 -1.3 c 1.926 0.41 44.996 4.74 134.72 39.04 0 0 -120.66 -40.4 -136.08 -37.74 z " id="path836" />
				</g>
				<g fill="#000" id="g838">
					<path d="M -43.8 148.4 s 5.2 -0.4 4 1.2 -3.6 0.8 -3.6 0.8 l -0.4 -2 z " id="path840" />
				</g>
				<g fill="#000" id="g842">
					<path d="M -13 162.4 s 5.2 -0.4 4 1.2 -3.6 0.8 -3.6 0.8 l -0.4 -2 z " id="path844" />
				</g>
				<g fill="#000" id="g846">
					<path d="M -21.8 162 s 5.2 -0.4 4 1.2 -3.6 0.8 -3.6 0.8 l -0.4 -2 z " id="path848" />
				</g>
				<g fill="#000" id="g850">
					<path d="M -117.17 150.18 s 5.05 1.32 3.39 2.44 -3.67 -0.42 -3.67 -0.42 l 0.28 -2.02 z " id="path852" />
				</g>
				<g fill="#000" id="g854">
					<path d="M -115.17 140.58 s 5.05 1.32 3.39 2.44 -3.67 -0.42 -3.67 -0.42 l 0.28 -2.02 z " id="path856" />
				</g>
				<g fill="#000" id="g858">
					<path d="M -122.37 136.18 s 5.05 1.32 3.39 2.44 -3.67 -0.42 -3.67 -0.42 l 0.28 -2.02 z " id="path860" />
				</g>
				<g fill="#CCC" id="g862">
					<path d="m -42.6 211.2 l -5.6 2 c -2 0 -13.2 3.6 -18.8 13.6 0 0 12.4 -9.6 24.4 -15.6 z " id="path864" />
				</g>
				<g fill="#CCC" id="g866">
					<path d="M 45.116 303.85 c 0.141 0.25 0.196 0.67 0.488 0.69 0.658 0.04 1.891 0.34 1.766 -0.29 -0.848 -4.31 -1.722 -9.25 -5.855 -11.05 -0.639 -0.28 -2.081 0.13 -2.155 1.02 -0.127 1.52 -0.244 2.87 0.065 4.33 0.3 1.43 2.458 1.43 3.375 0.05 0.936 1.67 1.368 3.52 2.316 5.25 z " id="path868" />
				</g>
				<g fill="#CCC" id="g870">
					<path d="M 34.038 308.58 c 0.748 1.41 0.621 3.27 2.036 3.84 0.74 0.29 2.59 -0.68 2.172 -1.76 -0.802 -2.06 -1.19 -4.3 -2.579 -6.11 -0.2 -0.26 0.04 -0.79 -0.12 -1.12 -0.594 -1.22 -1.739 -1.96 -3.147 -1.63 -1.115 2.2 0.033 4.33 1.555 6.04 0.136 0.15 -0.03 0.53 0.083 0.74 z " id="path872" />
				</g>
				<g fill="#CCC" id="g874">
					<path d="M -5.564 303.39 c -0.108 -0.38 -0.146 -0.84 0.019 -1.16 0.531 -1.03 1.324 -2.15 0.987 -3.18 -0.348 -1.05 -1.464 -0.87 -2.114 -0.3 -1.135 0.99 -1.184 2.82 -1.875 4.18 -0.196 0.38 -0.145 0.96 -0.586 1.35 -0.474 0.42 -0.914 1.94 -0.818 2.51 0.053 0.32 -0.13 10.22 0.092 9.96 0.619 -0.73 3.669 -10.47 3.738 -11.36 0.057 -0.73 0.789 -1.19 0.557 -2 z " id="path876" />
				</g>
				<g fill="#CCC" id="g878">
					<path d="M -31.202 296.6 c 2.634 -2.5 5.424 -5.46 4.982 -9.17 -0.116 -0.98 -1.891 -0.45 -2.078 0.39 -0.802 3.63 -2.841 6.29 -5.409 8.68 -2.196 2.05 -4.058 8.39 -4.293 8.9 3.697 -5.26 5.954 -8 6.798 -8.8 z " id="path880" />
				</g>
				<g fill="#CCC" id="g882">
					<path d="M -44.776 290.64 c 0.523 -0.38 0.221 -0.87 0.438 -1.2 0.953 -1.46 2.254 -2.7 2.272 -4.44 0.003 -0.28 -0.375 -0.59 -0.71 -0.36 -0.277 0.18 -0.619 0.31 -0.727 0.44 -2.03 2.45 -3.43 5.12 -4.873 7.93 -0.183 0.36 -1.327 4.85 -1.014 4.96 0.239 0.09 1.959 -4.09 2.169 -4.21 1.263 -0.68 1.275 -2.3 2.445 -3.12 z " id="path884" />
				</g>
				<g fill="#CCC" id="g886">
					<path d="M -28.043 310.18 c 0.444 -0.87 2.02 -2.07 1.907 -2.96 -0.118 -0.93 0.35 -2.37 -0.562 -1.68 -1.257 0.94 -4.706 2.29 -4.976 8.1 -0.026 0.57 2.948 -2.12 3.631 -3.46 z " id="path888" />
				</g>
				<g fill="#CCC" id="g890">
					<path d="M -13.6 293 c 0.4 -0.67 1.108 -0.19 1.567 -0.46 0.648 -0.37 1.259 -0.93 1.551 -1.58 0.97 -2.14 2.739 -3.96 2.882 -6.36 -1.491 -1.4 -2.17 0.64 -2.8 1.6 -1.323 -1.65 -2.322 0.23 -3.622 0.75 -0.07 0.03 -0.283 -0.32 -0.358 -0.29 -1.177 0.44 -1.857 1.52 -2.855 2.3 -0.171 0.13 -0.576 -0.05 -0.723 0.09 -0.652 0.6 -1.625 0.93 -1.905 1.61 -1.11 2.7 -4.25 4.8 -6.137 12.34 0.381 0.91 4.512 -6.64 4.999 -7.34 0.836 -1.2 0.954 1.66 2.23 1 0.051 -0.03 0.237 0.21 0.371 0.34 0.194 -0.28 0.412 -0.51 0.8 -0.4 0 -0.4 -0.134 -0.96 0.067 -1.11 1.237 -0.98 1.153 -2.05 1.933 -3.29 0.458 0.79 1.519 0.07 2 0.8 z " id="path892" />
				</g>
				<g fill="#CCC" id="g894">
					<path d="M 46.2 347.4 s 7.4 -20.4 3 -31.6 c 0 0 11.4 21.6 6.8 32.8 0 0 -0.4 -10.4 -4.4 -15.4 0 0 -4 12.8 -5.4 14.2 z " id="path896" />
				</g>
				<g fill="#CCC" id="g898">
					<path d="M 31.4 344.8 s 5.4 -8.8 -2.6 -27.2 c 0 0 -0.8 20.4 -7.6 31.4 0 0 14.2 -20.2 10.2 -4.2 z " id="path900" />
				</g>
				<g fill="#CCC" id="g902">
					<path d="M 21.4 342.8 s -0.2 -20 0.2 -23 c 0 0 -3.8 16.6 -14 26.2 0 0 14.4 -12 13.8 -3.2 z " id="path904" />
				</g>
				<g fill="#CCC" id="g906">
					<path d="M 11.8 310.8 s 6 13.6 -4 32 c 0 0 6.4 -12.2 1.6 -19.2 0 0 2.6 -3.4 2.4 -12.8 z " id="path908" />
				</g>
				<g fill="#CCC" id="g910">
					<path d="M -7.4 342.4 s -1 -15.6 0.8 -17.8 c 0 0 0.2 -6.4 -0.2 -7.4 0 0 4 -6.2 4.2 1.2 0 0 1.4 7.8 4.2 12.4 0 0 3.6 5.4 3.4 11.8 0 0 -10 -30.2 -12.4 -0.2 z " id="path912" />
				</g>
				<g fill="#CCC" id="g914">
					<path d="M -11 314.8 s -6.6 10.8 -8.4 29.8 c 0 0 -1.4 -6.2 2.4 -20.6 0 0 4.2 -15.4 6 -9.2 z " id="path916" />
				</g>
				<g fill="#CCC" id="g918">
					<path d="M -32.8 334.6 s 5 -5.4 6.4 -10.4 c 0 0 3.6 -15.8 -2.8 -7.2 0 0 0.2 8 -8 15.4 0 0 4.8 -2.4 4.4 2.2 z " id="path920" />
				</g>
				<g fill="#CCC" id="g922">
					<path d="M -38.6 329.6 s 3.4 -17.4 4.2 -18.2 c 0 0 1.8 -3.4 -1 -0.2 0 0 -8.8 19.2 -12.8 25.8 0 0 8 -9.2 9.6 -7.4 z " id="path924" />
				</g>
				<g fill="#CCC" id="g926">
					<path d="M -44.4 313 s 11.6 -22.4 -10.2 3.4 c 0 0 11 -9.8 10.2 -3.4 z " id="path928" />
				</g>
				<g fill="#CCC" id="g930">
					<path d="M -59.8 298.4 s 4.8 -18.8 7.4 -18.6 l 1.6 1.6 s -6 9.6 -5.4 19.4 c 0 0 -0.6 -9.6 -3.6 -2.4 z " id="path932" />
				</g>
				<g fill="#CCC" id="g934">
					<path d="M 270.5 287 s -12 -10 -14.5 -13.5 c 0 0 13.5 18.5 13.5 25.5 0 0 2.5 -7.5 1 -12 z " id="path936" />
				</g>
				<g fill="#CCC" id="g938">
					<path d="M 276 265 s -21 -15 -24.5 -22.5 c 0 0 26.5 29.5 26.5 34 0 0 0.5 -9 -2 -11.5 z " id="path940" />
				</g>
				<g fill="#CCC" id="g942">
					<path d="M 293 111 s -12 -8 -13.5 -6 c 0 0 10.5 6.5 13 15 0 0 -1.5 -9 0.5 -9 z " id="path944" />
				</g>
				<g fill="#CCC" id="g946">
					<path d="m 301.5 191.5 l -17.5 -12 s 19 17 19.5 21 l -2 -9 z " id="path948" />
				</g>
				<g id="g950" stroke="#000">
					<path d="m -89.25 169 l 22 4.75 " id="path952" />
				</g>
				<g id="g954" stroke="#000">
					<path d="M -39 331 s -0.5 -3.5 -9.5 7 " id="path956" />
				</g>
				<g id="g958" stroke="#000">
					<path d="M -33.5 336 s 2 -6.5 -4.5 -2 " id="path960" />
				</g>
				<g id="g962" stroke="#000">
					<path d="M 20.5 344.5 s 1.5 -11 -10 2 " id="path964" />
				</g>
			</g>
			<animateMotion dur="6s" repeatCount="indefinite">
				<mpath xlink:href="#path_34" />
			</animateMotion>
		</g>
	</g>
</svg>
